<svg xmlns="http://www.w3.org/2000/svg" viewBox="0 0 20 20"><path d="M0 0h20v20H0z"/><path d="M4.04 15.54zm-1.37-2.1zm.6 1.1zm-1.24-3.53zm2.62-6.78zm9.7 12.69zm-1.11.6zm3.49-11.68zm.59 1.11zm-1.36-2.11zm1.21 5.35c0-.23.36-.41.83-.43v-.39c-.47.05-.85-.08-.89-.3s.3-.46.75-.56a2.62 2.62 0 00-.09-.38c-.45.12-.85.06-.92-.15s.22-.51.65-.67a3 3 0 00-.17-.31c-.43.19-.84.19-.94 0s.13-.54.54-.77c-.06-.11-.13-.22-.2-.33-.39.26-.8.32-.93.14s0-.55.42-.84L16 4.84c-.34.31-.73.44-.89.28s0-.55.28-.89L15.05 4c-.29.37-.65.55-.84.42s-.12-.53.14-.93L14 3.26c-.23.41-.56.65-.77.54s-.2-.51 0-.93a2.17 2.17 0 00-.35-.15c-.17.43-.46.72-.67.65s-.28-.47-.16-.92a2.62 2.62 0 00-.38-.09c-.1.45-.34.79-.56.75s-.35-.42-.3-.89h-.39c0 .47-.2.83-.43.83s-.41-.36-.43-.83h-.39c.05.47-.08.86-.3.89s-.46-.29-.56-.75a2.62 2.62 0 00-.38.09c.12.45.06.85-.16.92s-.5-.22-.67-.65a2.17 2.17 0 00-.35.15c.19.42.19.83 0 .93s-.54-.13-.75-.54l-.33.2c.26.39.32.8.14.93S5.24 4.34 5 4l-.3.26c.31.34.44.73.28.89s-.55 0-.89-.28l-.26.3c.37.29.55.65.42.84s-.54.12-.93-.14c-.07.11-.14.22-.2.33.41.23.65.57.54.77s-.51.2-.93 0a2.17 2.17 0 00-.15.35c.43.17.72.46.65.68s-.47.27-.92.15a2.62 2.62 0 00-.09.38c.45.1.79.34.75.56s-.42.35-.89.3H2v.39c.47 0 .83.2.83.43s-.36.41-.83.43V11c.47 0 .85.08.89.3s-.3.46-.75.56a2.62 2.62 0 00.09.38c.45-.12.85-.06.92.16s-.22.5-.65.67c0 .12.09.24.14.36.43-.2.84-.2.94 0s-.13.54-.54.77c.06.11.13.22.2.33.39-.25.8-.32.93-.14s0 .55-.42.84l.26.3c.34-.31.73-.44.89-.28s0 .55-.28.89l.3.26c.29-.37.65-.55.84-.42s.12.54-.14.93l.33.2c.23-.4.56-.65.77-.54s.2.51 0 .94l.35.14c.17-.43.46-.72.67-.65s.28.47.16.92a2.62 2.62 0 00.38.09c.1-.45.34-.78.56-.75s.35.42.3.89h.39c0-.47.2-.83.43-.83s.41.36.43.83h.39c-.05-.47.08-.85.3-.89s.46.3.56.75a2.62 2.62 0 00.38-.09c-.12-.45-.06-.85.16-.92s.5.22.67.65l.35-.14c-.19-.43-.19-.84 0-.94s.54.13.77.54l.33-.2c-.26-.39-.32-.8-.14-.93s.55 0 .84.42l.3-.26c-.31-.34-.44-.73-.28-.89s.55 0 .89.28l.26-.3c-.37-.29-.55-.65-.42-.84s.54-.11.93.14c.07-.11.14-.22.2-.33-.41-.23-.65-.56-.54-.77s.51-.2.93 0a2.17 2.17 0 00.15-.35c-.43-.17-.72-.46-.65-.67s.47-.28.92-.16a2.62 2.62 0 00.09-.38c-.45-.1-.79-.34-.75-.56S17.5 11 18 11v-.39c-.47-.01-.83-.19-.83-.42zM13.94 6a.57.57 0 01.57.57.58.58 0 01-.57.57.57.57 0 01-.57-.57.56.56 0 01.57-.57zM4.61 8.1a.56.56 0 01.78.21.57.57 0 11-1 .57.57.57 0 01.22-.78zm5.16 8.09a1.25 1.25 0 01-.92.32 3.56 3.56 0 01-1.47-.38 6.56 6.56 0 01-2.43-2 6.18 6.18 0 01-1.18-2.43 2.67 2.67 0 010-1.09 1 1 0 011.19-.88 3.29 3.29 0 011.31.51 9.22 9.22 0 012.25 2 8.42 8.42 0 01.91 1.28 4.35 4.35 0 01.57 1.65 1.13 1.13 0 01-.23 1.02zm.23-4.42a1.58 1.58 0 111.58-1.58A1.58 1.58 0 0110 11.77zm1.66 3.93a.58.58 0 01-.78.21.57.57 0 01-.2-.78.55.55 0 01.77-.21.56.56 0 01.21.78zM9 7.85A8.74 8.74 0 017.42 8a4.53 4.53 0 01-1.75-.26A1.15 1.15 0 014.92 7a1.26 1.26 0 01.18-1 3.45 3.45 0 011.07-1 6.57 6.57 0 012.92-1.17 6.12 6.12 0 012.69.2 2.64 2.64 0 011 .5A1 1 0 0112.91 6a3.24 3.24 0 01-1.09.89A9.17 9.17 0 019 7.85zm7 4.73a6.09 6.09 0 01-1.51 2.23 2.79 2.79 0 01-.92.59 1 1 0 01-1.36-.59 3.33 3.33 0 01-.21-1.39 9.27 9.27 0 01.59-2.94 8.21 8.21 0 01.64-1.43 4.5 4.5 0 011.11-1.38 1.13 1.13 0 011-.28 1.26 1.26 0 01.74.64 3.54 3.54 0 01.4 1.46 6.54 6.54 0 01-.48 3.09zM5.65 3.46zm1.1-.59zm2.43-.65z" fill="#fff"/></svg>