<svg xmlns="http://www.w3.org/2000/svg" viewBox="0 0 20 20"><defs><style>.b{fill:#fff}</style></defs><path fill="#2c5bb4" d="M0 0h20v20H0z"/><path class="b" d="M18 10a8 8 0 11-8-8 8 8 0 018 8zm-8-7.39A7.39 7.39 0 1017.39 10 7.39 7.39 0 0010 2.61z"/><circle class="b" cx="10.02" cy="7.16" r="1.66"/><circle class="b" cx="13.25" cy="12.6" r=".87"/><circle class="b" cx="6.79" cy="11.85" r=".87"/><circle class="b" cx="10.23" cy="13.4" r=".49"/><circle class="b" cx="14.22" cy="14.88" r=".49"/><circle class="b" cx="5.91" cy="14.82" r=".49"/><circle class="b" cx="14.22" cy="5.81" r=".49"/><path class="b" d="M10 7.28L6.27 3.65l.14-.14 3.64 3.54 5.63-1.83.06.19L10 7.28z"/><path class="b" d="M16.59 13.4l-3.4-.71-3.17-5.34-3.19 4.61-4.09-.44.02-.2 3.98.43 3.29-4.77 3.29 5.53 3.31.7-.04.19z"/><path class="b" d="M6.01 16.16h-.2l.01-1.37.9-3.07 3.52 1.58 3.07-.82 1.39 3.26-.19.08-1.32-3.1-2.97.79-3.37-1.52-.84 2.84v1.33z"/></svg>