<svg xmlns="http://www.w3.org/2000/svg" viewBox="0 0 20 20"><defs><style>.b{fill:#fff}</style></defs><path fill="#3f83fe" d="M0 0h20v20H0z"/><path class="b" d="M18 11.23v.89a.21.21 0 01-.21.21h-1.95a5.85 5.85 0 00.07-.85 6.14 6.14 0 00-.13-1.21l2.07.76a.22.22 0 01.15.2zm-8-4.64a4.9 4.9 0 11-4.9 4.89v-.33a4.89 4.89 0 014.7-4.56zm3.76 4.89A3.77 3.77 0 1010 15.25a3.76 3.76 0 003.76-3.77z"/><path class="b" d="M11.71 9.72A2.45 2.45 0 0110 13.94a2.43 2.43 0 01-1.76-.74l.53-.54a1.7 1.7 0 011.87-2.75 1.93 1.93 0 01.54.35l.52-.52zm-.62 1.76a1.1 1.1 0 10-1.09 1.1 1.09 1.09 0 001.09-1.1zm-.6-7.75l.64 2A5.22 5.22 0 0010 5.58a5.63 5.63 0 00-1.1.1l.68-2.06a.21.21 0 01.2-.15h.51a.21.21 0 01.2.15zm-8.3 8.6a.21.21 0 01-.19-.21v-.89a.22.22 0 01.14-.2l2.06-.75a6 6 0 00-.12 1.2 5.87 5.87 0 00.06.85h-2z"/></svg>