<svg xmlns="http://www.w3.org/2000/svg" viewBox="0 0 20 20"><path d="M0 0h20v20H0z"/><path d="M16.1 7.44a3.56 3.56 0 00.45 6.3c-.14.34-.26.69-.41 1a9.28 9.28 0 01-1.64 2.46 3 3 0 01-.58.48 1.67 1.67 0 01-1.44.24 7.13 7.13 0 01-.78-.26 3.39 3.39 0 00-2.79 0 6 6 0 01-.75.25 1.63 1.63 0 01-1.61-.35 7.61 7.61 0 01-.92-1 9.92 9.92 0 01-2.07-4.75 6 6 0 01.49-3.78 3.93 3.93 0 012.76-2.1 3.41 3.41 0 012 .22l.78.28a1.5 1.5 0 001.12 0c.41-.16.83-.32 1.25-.44a3.76 3.76 0 013.9 1.08 1.3 1.3 0 01.18.23.75.75 0 01.06.14zM13.23 2a3.65 3.65 0 01-1.3 3 2.44 2.44 0 01-1.93.7A3.52 3.52 0 0113.23 2z" fill="#fff"/></svg>