<svg xmlns="http://www.w3.org/2000/svg" viewBox="0 0 20 20"><defs><style>.b{fill:#fff}</style></defs><path fill="#fe9902" d="M0 0h20v20H0z"/><path class="b" d="M8.86 10.1c.1-.4.19-.77.27-1.14.19-.77.37-1.54.55-2.31v-.1a.25.25 0 01.32-.21h.52c.16 0 .22.07.27.26.08.37.17.73.25 1.09.18.78.37 1.56.55 2.34v.12c.06-.24.12-.44.17-.65.25-.95.49-1.9.73-2.84v-.12a.25.25 0 01.27-.2h.49c.13 0 .17 0 .15.18a.58.58 0 010 .18l-1.26 4.05v.09c-.07.19-.13.24-.32.24h-.43c-.22 0-.27-.05-.33-.27l-.24-1c-.18-.76-.37-1.52-.55-2.28v-.12c-.08.35-.16.67-.24 1l-.57 2.39c-.06.25-.12.29-.37.3h-.4c-.19 0-.25-.05-.31-.23L8 9.78c-.31-1-.62-2.07-.94-3.11-.1-.35 0-.34.24-.33h.35c.2 0 .27 0 .33.25s.15.6.23.9L8.82 10zm1.21 5.7a11.91 11.91 0 01-5.82-1.46 11.87 11.87 0 01-2.14-1.52s-.11-.06-.11-.1a.22.22 0 010-.16.11.11 0 01.15-.05.31.31 0 01.13.06 15.69 15.69 0 003.15 1.36 16.34 16.34 0 002.4.54 18.29 18.29 0 002 .17 14.32 14.32 0 002.36-.14 15.88 15.88 0 004-1.07.72.72 0 01.21 0 .22.22 0 01.2.13.18.18 0 010 .23 1 1 0 01-.15.14 9.87 9.87 0 01-2.31 1.18 11.13 11.13 0 01-2.11.56c-.41.07-.82.11-1.22.14s-.6-.02-.74-.01zM5.62 8.42a5.8 5.8 0 000-.74C5.51 7.27 5.35 7 4.81 7a3 3 0 00-1.48.24.86.86 0 01-.21.07C3 7.3 3 7.26 3 7.16a2.8 2.8 0 010-.41.21.21 0 01.17-.19 5.21 5.21 0 01.66-.24 3.13 3.13 0 011.58 0 1.34 1.34 0 011.04 1.16 4.89 4.89 0 010 .54v1.93a1.66 1.66 0 00.18.53c.11.22.1.26-.11.4l-.15.12c-.18.12-.26.11-.4-.06s-.16-.25-.24-.37l-.05-.11c-.12.1-.22.21-.34.3a2 2 0 01-1.74.35A1.26 1.26 0 012.66 10a1.73 1.73 0 010-.64 1.45 1.45 0 011-1A2.79 2.79 0 015 8.31zm0 .61a3.69 3.69 0 00-1.32-.1.76.76 0 00-.72.7 1.22 1.22 0 000 .33.64.64 0 00.54.52 1.59 1.59 0 00.78-.09 1 1 0 00.64-.64A1.92 1.92 0 005.62 9zm9.78 2.18a3.07 3.07 0 01-1.15-.2c-.47-.18-.43-.26-.42-.67 0-.15.07-.2.22-.15a5.66 5.66 0 00.58.2 2.52 2.52 0 001.22 0 .91.91 0 00.31-.12.57.57 0 000-1 6 6 0 00-.59-.22c-.23-.08-.47-.14-.7-.23a1.43 1.43 0 01-.84-.7 1.27 1.27 0 01.55-1.69 1.84 1.84 0 01.85-.26 3.05 3.05 0 011.2.15h.08c.44.17.39.29.38.68 0 .11-.07.15-.18.12l-.2-.08a2.51 2.51 0 00-1.4-.04 1.06 1.06 0 00-.25.09A.54.54 0 0015 8a3.39 3.39 0 00.55.24c.26.09.52.16.78.26a2.48 2.48 0 01.44.2 1.28 1.28 0 01.32 1.81 1.64 1.64 0 01-.89.61 2.44 2.44 0 01-.8.09z"/><path class="b" d="M15 12.8a1.06 1.06 0 01.15-.15 2.46 2.46 0 011-.39 3.54 3.54 0 011.45 0l.21.06a.28.28 0 01.22.3A3.16 3.16 0 0117.7 14a2.79 2.79 0 01-.7 1.05c-.07.06-.14.12-.24.07s0-.15 0-.22c.11-.31.23-.61.33-.92a2.64 2.64 0 00.15-.73c0-.26-.07-.35-.33-.4a4.18 4.18 0 00-1 0l-.73.08a.16.16 0 01-.18-.13z"/></svg>