<svg xmlns="http://www.w3.org/2000/svg" viewBox="0 0 20 20"><defs><style>.b{fill:#fff}</style></defs><path fill="#5c2d91" d="M0 .04h20v20H0z"/><path class="b" d="M2.5 10.79v-.15a5.55 5.55 0 011.6-3.38 5.45 5.45 0 013-1.58 6.36 6.36 0 011-.09h2a4.81 4.81 0 002.91-1.12c.17-.14.32-.3.49-.45s.06-.08.11-.06.05.09 0 .14a5 5 0 01-.45 1.6c-.09.19-.2.36-.3.55v.07a.1.1 0 00.09 0 5.7 5.7 0 002-.92A5.33 5.33 0 0016.21 4c.13-.2.24-.41.37-.62a.18.18 0 01.1-.09c.06 0 .08 0 .11.09a5.92 5.92 0 01.68 2.4 8.13 8.13 0 01-2 6.13A8.67 8.67 0 0111 14.66a7.57 7.57 0 01-1.89.27 10 10 0 01-1.1 0 3.87 3.87 0 01-2.2-.93 3.56 3.56 0 01-.63-5 3.5 3.5 0 012.43-1.43 3.62 3.62 0 013.06.93 3.69 3.69 0 011.19 2.31 2.3 2.3 0 010 .94.85.85 0 01-.44.57.8.8 0 01-1.11-.58 1.55 1.55 0 010-.37V9.85a1 1 0 00-1-1H8a2.28 2.28 0 00-.51 4.51 2.18 2.18 0 002.15-.69l.07-.08.1.14a1.67 1.67 0 002.41.12 2 2 0 00.56-1.06 3.43 3.43 0 000-1.06 4.74 4.74 0 00-.46-1.57 4.56 4.56 0 00-2-2.09A4.64 4.64 0 005 7.84a4.62 4.62 0 00-.33 6.39 4.68 4.68 0 002.78 1.55 7.88 7.88 0 002 .08 10.47 10.47 0 002.41-.46A10.25 10.25 0 0014 14.35h.08a.2.2 0 010 .08 9.11 9.11 0 01-1.09 1 7.48 7.48 0 01-3.2 1.33 10 10 0 01-1.55.14 6 6 0 01-2.33-.39 5.31 5.31 0 01-1.73-1.1 5.48 5.48 0 01-1.6-3.21c0-.19-.05-.39-.07-.59v-.82z"/><path class="b" d="M9.31 10.54v.7a1.36 1.36 0 01-2.69.2 1.37 1.37 0 011.32-1.66h1.25c.1 0 .13 0 .13.13v.63z"/></svg>