<svg xmlns="http://www.w3.org/2000/svg" viewBox="0 0 20 20"><path fill="#4d337f" d="M0 0h20v20H0z"/><path d="M11.12 1.8a5.6 5.6 0 013.46 1 3.5 3.5 0 011.34 3 3.57 3.57 0 01-.56 2.08 3.92 3.92 0 01-1.7 1.34 3.53 3.53 0 012.24 1.33 4.75 4.75 0 01.77 2.74 4.48 4.48 0 01-.41 1.9 3.49 3.49 0 01-1.05 1.33 5.29 5.29 0 01-1.84 1 9 9 0 01-2.68.35H3.33V1.8zm-5 6.68h4.58a2.52 2.52 0 001.68-.59 2 2 0 00.67-1.64 2.09 2.09 0 00-.6-1.71A2.74 2.74 0 0010.72 4H6.14zm0 7h5a2.77 2.77 0 002-.67 2.47 2.47 0 00.67-1.81 2.31 2.31 0 00-.71-1.8 2.87 2.87 0 00-2-.64h-5z" fill="#fff"/></svg>