<svg xmlns="http://www.w3.org/2000/svg" viewBox="0 0 20 20"><path fill="#109985" d="M0 0h20v20H0z"/><rect style="fill:#fff" x="14.87" y="1.32" width="1.08" height="6.48" rx=".28" transform="rotate(-45 15.408 4.558)"/><path style="fill:#fff" d="M14.38 8.64l2.55-2.56-.76-.76L13 8.45a5.4 5.4 0 01-.42 6.5.39.39 0 01-.56 0L5 7.9a.38.38 0 010-.56 5.4 5.4 0 016.5-.42l3.13-3.13-.75-.79-2.56 2.59a6.46 6.46 0 103.06 3.05z"/><circle style="fill:#fff" cx="11.39" cy="11.75" r=".72"/><circle style="fill:#fff" cx="11.52" cy="7.87" r=".41"/><circle style="fill:#fff" cx="7" cy="10.6" r="1.94"/></svg>