<svg xmlns="http://www.w3.org/2000/svg" viewBox="0 0 20 20"><path fill="#b5dd64" d="M0 0h20v20H0z"/><path d="M4.8 10a7.82 7.82 0 011-4 8.87 8.87 0 012-2.32 7.61 7.61 0 012.64-1.35c.44-.14.9-.21 1.34-.31A10.11 10.11 0 0113 2a2 2 0 011.81 1.83A2 2 0 0112.7 6a2.91 2.91 0 00-.88.11 3.92 3.92 0 00-3 3.88 3.9 3.9 0 003 3.87 2.91 2.91 0 00.88.11 2 2 0 012.07 2.17A2 2 0 0113 18a10.09 10.09 0 01-1.1 0c-.44-.1-.9-.18-1.34-.31a8 8 0 01-2.64-1.35 9.08 9.08 0 01-2-2.33 7.81 7.81 0 01-1-4" fill="#fff"/></svg>