<svg xmlns="http://www.w3.org/2000/svg" viewBox="0 0 20 20"><path fill="#31bca1" d="M0 0h20v20H0z"/><path d="M11.46 9.34a7.21 7.21 0 005.48-6.58.52.52 0 00-.14-.39.59.59 0 00-.4-.16H3.6a.59.59 0 00-.4.16.52.52 0 00-.14.39 7.21 7.21 0 005.48 6.58 1.94 1.94 0 00.33 1v.8a2.17 2.17 0 00-.69 1.35.52.52 0 00.12.44.54.54 0 00.41.2h.15a6 6 0 01-2.44 4.06.51.51 0 00-.17.59.54.54 0 00.51.37h6.44a.54.54 0 00.51-.37.5.5 0 00-.18-.59 6.06 6.06 0 01-2.43-4.06h.15a.54.54 0 00.41-.2.52.52 0 00.12-.44 2.17 2.17 0 00-.69-1.35v-.79a1.94 1.94 0 00.37-1.01z" fill="#fff"/></svg>