<svg xmlns="http://www.w3.org/2000/svg" viewBox="0 0 20 20"><path fill="#91dc47" d="M0 0h20v20H0z"/><path d="M10 2a8 8 0 108 8 8 8 0 00-8-8zm0 15.23A7.22 7.22 0 012.79 10a4.1 4.1 0 010-.77 3.46 3.46 0 013.4-2.76 3 3 0 01.79.1 4.58 4.58 0 003 8 4.47 4.47 0 002-.48 6.08 6.08 0 001.29.27 5.86 5.86 0 00.61 0 8.59 8.59 0 002-.27A7.18 7.18 0 0110 17.23zm.62-6.42c-.2-.51-.31-.89-.31-.89a8.65 8.65 0 00-1.5-3.53A4 4 0 0110 6.2a3.81 3.81 0 013.82 3.8 3.82 3.82 0 01-1.57 3.08A1.87 1.87 0 0112 13a1.59 1.59 0 01-.57-.59 8.68 8.68 0 01-.8-1.6zm.58 2.82a3.68 3.68 0 01-1.2.2 3.86 3.86 0 01-1.32-.23v-.31a2.57 2.57 0 01.07-.66 12.43 12.43 0 01.72-2l.24-.52A9.66 9.66 0 0011 13.37a2.06 2.06 0 00.21.26zM9.29 9c.07.16.13.32.18.46a21.49 21.49 0 00-1.7 3.66 3.81 3.81 0 010-6.21 2.54 2.54 0 01.57.44A5.5 5.5 0 019.29 9zm6.9 3.61a3.51 3.51 0 01-2.31.72h-.65A4.6 4.6 0 0014.59 10 4.58 4.58 0 0010 5.43a4.74 4.74 0 00-1.85.38l-.22-.14a4 4 0 00-1.81-.44 3.7 3.7 0 00-2 .58A7.22 7.22 0 0117.23 10a9.07 9.07 0 01-.06.92 3 3 0 01-.98 1.67z" fill="#fff"/></svg>