<svg xmlns="http://www.w3.org/2000/svg" viewBox="0 0 20 20"><path fill="#424242" d="M0 0h20v20H0z"/><path d="M8.34 16.9a4.13 4.13 0 11-4-7 2.54 2.54 0 001.34-1.11A2.57 2.57 0 006 7a4 4 0 01-.1-1.28A4.13 4.13 0 1114 7a2.59 2.59 0 00.3 1.75A2.62 2.62 0 0015.8 10a4.13 4.13 0 11-4.09 7 2.51 2.51 0 00-1.7-.64 2.57 2.57 0 00-1.67.54zM10 8.48a2.35 2.35 0 112.34-2.35A2.35 2.35 0 0110 8.48zm0 .46a2.81 2.81 0 10-2.87-2.81A2.81 2.81 0 0010 8.94zm5.64 2.9a2.35 2.35 0 11-3.21.86 2.34 2.34 0 013.16-.86zM13 16.31a2.82 2.82 0 10-1-3.85 2.82 2.82 0 001 3.85zm-6.35-.41a2.35 2.35 0 11.86-3.2 2.34 2.34 0 01-.86 3.2zm-2.58-4.47a2.82 2.82 0 103.84 1 2.82 2.82 0 00-3.84-1z" fill="#fff" fill-rule="evenodd"/></svg>