<svg xmlns="http://www.w3.org/2000/svg" viewBox="0 0 20 20"><defs><style>.a{fill:#fff}</style></defs><path d="M0 .04h20v20H0z"/><path class="a" d="M12.15 12.33c.24 0 .48 0 .71-.07a6.09 6.09 0 003.22-1.53c.37-.34.38-.49.09-.92a7.16 7.16 0 00-2.61-2.28c-.69-.37-1.45-.63-2.18-.94l-.17-.07a10.83 10.83 0 013.07.73 8.76 8.76 0 013.16 2.07 2.6 2.6 0 01.37.45.72.72 0 01-.07 1 8.38 8.38 0 01-1.58 1.33 8.6 8.6 0 01-5.1 1.33 5.83 5.83 0 01-2.38-.58 3 3 0 01-1.15-4.27 3 3 0 013.73-1A2.87 2.87 0 0112.77 11a7.4 7.4 0 01-.48 1l-.17.24zM10 8.5a1.71 1.71 0 00-1.71 1.69A1.76 1.76 0 0010 11.91a1.74 1.74 0 001.7-1.72A1.68 1.68 0 0010 8.5z"/><path class="a" d="M7.94 13.41h-.18a10.16 10.16 0 01-4.55-1.7 7 7 0 01-1-1 .65.65 0 010-1 9.33 9.33 0 011.27-1.16 10.58 10.58 0 014.71-2 .28.28 0 01.2 0l-.18.08a10 10 0 00-3.92 2.56c-.21.22-.38.46-.57.69a.55.55 0 000 .72A4.34 4.34 0 005 11.91a10.07 10.07 0 002.66 1.34l.34.11z"/></svg>