<svg xmlns="http://www.w3.org/2000/svg" viewBox="0 0 20 20"><path fill="#a178db" d="M0 0h20v20H0z"/><path d="M3.91 5.16l4.94-2.85a2.26 2.26 0 012.3 0l4.94 2.85a2.3 2.3 0 011.15 2v5.7a2.3 2.3 0 01-1.15 2l-4.94 2.85a2.26 2.26 0 01-2.3 0l-4.94-2.87a2.3 2.3 0 01-1.15-2V7.15a2.3 2.3 0 011.15-1.99zm8.16 6A2.39 2.39 0 1110 7.6a2.37 2.37 0 012 1.06.55.55 0 01.09.14l2.12-1.22a4.84 4.84 0 100 4.84zm1.66-1.57h-.44l-.06.54h.44zm-.54.92h.44l-.06.67H14l.07-.67h.37v-.38h-.33v-.54h.38v-.34h-.34l.07-.61h-.4l-.06.61h-.44l.06-.61H13l-.06.61h-.39v.38h.35l-.05.54h-.4v.38h.36l-.07.67h.4z" fill="#fff"/></svg>