<svg xmlns="http://www.w3.org/2000/svg" viewBox="0 0 20 20"><path d="M0 0h20v20H0z"/><path d="M3.76 10.46l2.47 1.66a1.77 1.77 0 01.23.19.4.4 0 01.12.29v.92a.21.21 0 01-.23.23h-.07l-3.87-2.61a.75.75 0 01-.23-.14.35.35 0 01-.08-.26v-.46a.36.36 0 01.08-.28 1.22 1.22 0 01.23-.19l3.82-2.62h.07a.22.22 0 01.17.07.21.21 0 01.06.16v.93a.38.38 0 01-.12.28 1.92 1.92 0 01-.23.2zM11.18 6a.69.69 0 01.16-.23.44.44 0 01.32-.1h.8a.21.21 0 01.17.07.22.22 0 01.07.17.2.2 0 010 .1L9 14.87a.86.86 0 01-.15.22.45.45 0 01-.33.1h-.78a.22.22 0 01-.17-.07.21.21 0 01-.07-.12.15.15 0 010-.09zM14 8.8a1.92 1.92 0 01-.23-.2.38.38 0 01-.12-.28v-.93a.21.21 0 01.06-.16.22.22 0 01.17-.07H14l3.82 2.58A1.22 1.22 0 0118 10a.37.37 0 01.09.27v.46A.36.36 0 0118 11a.75.75 0 01-.23.19L14 13.72h-.12a.21.21 0 01-.23-.23v-.89a.4.4 0 01.12-.29 1.77 1.77 0 01.23-.19l2.47-1.66z" fill="#fff"/></svg>