<svg xmlns="http://www.w3.org/2000/svg" viewBox="0 0 20 20"><defs><style>.b{fill:#fff}</style></defs><path fill="#092e20" d="M0 0h20v20H0z"/><path class="b" d="M8.82 3.37h2.39v11.07a15.33 15.33 0 01-3.11.33c-2.92 0-4.44-1.32-4.44-3.85a3.82 3.82 0 014.12-4 4 4 0 011 .12V3.37zm0 5.63A2.25 2.25 0 008 8.82a1.81 1.81 0 00-1.91 2 1.74 1.74 0 001.89 2 5.21 5.21 0 00.83-.06z"/><path class="b" d="M15 7.07v5.54a7.4 7.4 0 01-.56 3.62A3.85 3.85 0 0112.5 18l-2.22-1.06a3.45 3.45 0 001.89-1.6c.34-.68.45-1.47.45-3.55V7.07zm-2.38-3.68H15v2.45h-2.38z"/></svg>