<svg xmlns="http://www.w3.org/2000/svg" viewBox="0 0 20 20"><path fill="#5c2d91" d="M0 0h20v20H0z"/><path d="M8.13 6.82v3.05a.38.38 0 000 .1c-.28-.43-.55-.86-.82-1.29-.75-1.22-1.51-2.4-2.26-3.59A.13.13 0 004.92 5h-.8v5.83h.67V5.86a.18.18 0 010-.06v.06c.06.11.11.23.17.33q1.48 2.3 2.95 4.59a.13.13 0 00.11.06h.77V5h-.66v1.6a.61.61 0 010 .14.13.13 0 010 .08zm2.19 2.23v1.81h3.1v-.65H11V8.19h2.09v-.62H11V5.63h2.24V5h-2.92v4zm3.75 4.77a1 1 0 00-.11-.45.67.67 0 00-.59-.4.85.85 0 00-.87.5 1.23 1.23 0 000 1.09.74.74 0 00.55.4 1.68 1.68 0 00.39 0 .91.91 0 00.42-.14v-.32a.92.92 0 01-.6.21.56.56 0 01-.6-.52.61.61 0 010-.14h1.35zm-.67-.57a.4.4 0 01.27.2.6.6 0 01.08.35h-1a.56.56 0 01.65-.55zm-5 1.31a1.53 1.53 0 01-.76.15.89.89 0 01-.64-.39 1.29 1.29 0 01-.14-1.08 1 1 0 01.75-.73 1.26 1.26 0 01.81.1h.06v-.3H8.4a1.64 1.64 0 00-.58-.09 1.29 1.29 0 00-1.25.78 1.55 1.55 0 00-.07 1.12 1.2 1.2 0 00.33.55 1.21 1.21 0 00.74.32 1.61 1.61 0 00.81-.13s.06 0 .06-.06v-.25a.05.05 0 00-.04.01zm2.28-.88a.87.87 0 00-.56-.68 1.08 1.08 0 00-.44 0 .9.9 0 00-.78.55 1.3 1.3 0 00-.06.73.89.89 0 00.34.56 1 1 0 00.69.18.88.88 0 00.59-.31 1 1 0 00.25-.72 2.23 2.23 0 00-.03-.31zm-.39.77a.51.51 0 01-.31.25.61.61 0 01-.78-.36.93.93 0 01.05-.83.62.62 0 01.93-.13.71.71 0 01.21.5.41.41 0 010 .11.82.82 0 01-.1.46zm1.23.4v-.92a.85.85 0 01.13-.47.41.41 0 01.49-.17h.06V13a.51.51 0 00-.3 0 .59.59 0 00-.36.35V13h-.34v1.91h.32zM2.46 10a.47.47 0 00-.46.46.45.45 0 00.45.45.43.43 0 00.45-.44.46.46 0 00-.44-.47zm13.17.83h.68v-5.2H18V5h-4v.61h1.67z" fill="#fff"/></svg>
