<svg xmlns="http://www.w3.org/2000/svg" viewBox="0 0 20 20"><defs><style>.b{fill:#fff}</style></defs><path fill="#2f3241" d="M0 0h20v20H0z"/><path class="b" d="M7.91 5.44c-2-.38-3.61 0-4.25 1.16A3.32 3.32 0 004 9.79a.2.2 0 00.28.07.21.21 0 00.08-.29A2.88 2.88 0 014 6.81c.53-.95 2-1.3 3.81-.95a.21.21 0 00.08-.42zM5 11.25a13 13 0 003.08 2.53c2.92 1.75 6 2.22 7.57 1.13a.22.22 0 00.05-.3.2.2 0 00-.29 0c-1.37 1-4.32.52-7.12-1.16a12.37 12.37 0 01-3-2.44.21.21 0 00-.31.29z"/><path class="b" d="M15.2 11c1.32-1.63 1.8-3.25 1.14-4.39a3 3 0 00-2.76-1.3.21.21 0 00-.21.21.21.21 0 00.21.22A2.65 2.65 0 0116 6.82c.52.95.11 2.4-1.11 3.89a.23.23 0 000 .31.21.21 0 00.29 0zm-3.39-5.49A12.68 12.68 0 008.13 7c-3 1.81-5 4.48-4.72 6.41a.21.21 0 00.24.18.21.21 0 00.17-.24c-.24-1.72 1.63-4.24 4.51-6a12.4 12.4 0 013.56-1.47.21.21 0 00-.08-.42z"/><path class="b" d="M6.92 14.77C7.61 16.77 8.74 18 10 18a3 3 0 002.45-1.81.22.22 0 00-.07-.29.21.21 0 00-.29.07c-.6 1-1.33 1.6-2.09 1.6-1.06 0-2.06-1.1-2.7-2.94a.2.2 0 00-.26-.13.21.21 0 00-.13.27zm6.3-.39a13.8 13.8 0 00.55-4c0-3.56-1.2-6.62-2.91-7.4a.2.2 0 00-.27.1.23.23 0 00.11.29c1.52.7 2.66 3.6 2.66 7a13.6 13.6 0 01-.53 3.84.21.21 0 00.13.27.2.2 0 00.26-.14zm3.89-.21a1 1 0 10-1 1 1 1 0 001-1zm-.41 0a.59.59 0 01-.58.6.6.6 0 010-1.2.59.59 0 01.58.6zM3.88 15.2a1 1 0 000-2.06 1 1 0 000 2.06zm0-.43a.6.6 0 010-1.2.6.6 0 010 1.2z"/><path class="b" d="M10 4.05a1 1 0 000-2A1 1 0 009 3a1 1 0 001 1zm0-.43A.58.58 0 019.43 3a.59.59 0 01.58-.6.58.58 0 01.57.6.57.57 0 01-.57.59zm.16 7.51a.71.71 0 01-.85-.57.74.74 0 01.55-.88.72.72 0 01.85.57.75.75 0 01-.55.88z"/></svg>