<svg xmlns="http://www.w3.org/2000/svg" viewBox="0 0 20 20"><path fill="#7c6cab" d="M0 0h20v20H0z"/><path d="M10.45 3.2V2a.75.75 0 00-.26 0 3.05 3.05 0 00-1.09.72 5.84 5.84 0 00-.49.51c-.16.18-.31.36-.45.55-.25.37-.49.74-.72 1.12s-.44.78-.63 1.16c-.28.56-.54 1.12-.8 1.68-.13.31-.26.62-.38.93A15.49 15.49 0 005 10.41a9.8 9.8 0 00-.36 1.93 4.18 4.18 0 000 1.06v.14a3.25 3.25 0 00.21.91 4.75 4.75 0 00.34.77 5.47 5.47 0 00.85 1.17c.15.15.31.28.48.42a4.83 4.83 0 001.33.79c.12 0 .25.08.38.12a2.28 2.28 0 00.29.1 1.06 1.06 0 00.19.06l.51.09h.51a7.72 7.72 0 001-.05c.27-.05.54-.1.81-.17a5.59 5.59 0 001.34-.61l.2-.12a5.54 5.54 0 001.12-1c.07-.08.12-.18.18-.26a5 5 0 00.61-1.2 4.06 4.06 0 00.21-.85v-.62a5.48 5.48 0 00-.09-1.14 6.79 6.79 0 00-.37-1 6.42 6.42 0 00-.5-.84c-.21-.3-.44-.59-.67-.88s-.42-.51-.64-.76l-.42-.51-.27-.29a1.88 1.88 0 00-.16-.23A7.12 7.12 0 0111.34 6c-.14-.28-.26-.56-.39-.85 0-.09 0-.22-.08-.31a7.14 7.14 0 01-.35-1.28c0-.15 0-.18-.07-.37" fill="#fff"/></svg>