<svg xmlns="http://www.w3.org/2000/svg" viewBox="0 0 20 20"><path fill="#e05c43" d="M0 0h20v20H0z"/><path d="M8.45 10.25c.08-3.32 2.26-4.77 3-4s.47 2.29-1 3.27-2.07.78-2.07.78m2.07 3.38c-1.94 0-1.74-1.22-1.74-1.22s7.14-2.46 5.21-7.24a3.49 3.49 0 00-3.29-1.59c-1.43 0-3.18.9-4.33 3.47a11.32 11.32 0 00-.84 3.27 2.69 2.69 0 01-1.92-.31c-.67-.56-1 0-1 0s-1.16 1.35 0 1.8a11.72 11.72 0 002.93.53 4.22 4.22 0 002 3.29c2.46 1.61 6.12-.09 6.12-.09a12.11 12.11 0 004.26-3 .57.57 0 000-.78l-.71-.74a.58.58 0 00-.78 0c-1 .78-3.45 2.62-5.83 2.62" fill="#fff" fill-rule="evenodd"/></svg>