<svg xmlns="http://www.w3.org/2000/svg" viewBox="0 0 20 20"><path fill="#865fb0" d="M0 0h20v20H0z"/><path d="M8.1 6.91a1.07 1.07 0 01.64-.34 7.92 7.92 0 011.82-.05.78.78 0 01.83.81c1.24.38 1.56 1.15.86 2.1a1.22 1.22 0 00-.55-.55 1.44 1.44 0 00-1.59.37A4 4 0 009.37 11a3.15 3.15 0 00-.07 1.33c.11.48.25.95.39 1.41.08.26.2.51.33.82l6.61-11.48a1.68 1.68 0 011.14 2.49l-6.32 11a1.67 1.67 0 01-2.9 0l-6.32-11a1.67 1.67 0 011.45-2.51H15.4l-1.29 2.23H4.64l1.71 3L6.79 8A5 5 0 008.1 6.91m.2 9.21l2.3-8.53c-.4-.16-.57-.16-.8 0 .27.32.53.17.8 0z" fill="#fff"/></svg>