<svg xmlns="http://www.w3.org/2000/svg" viewBox="0 0 20 20"><defs><style>.a{fill:#fff}</style></defs><path d="M0 0h20v20H0z"/><path class="a" d="M4.24 2.66a.45.45 0 01.24.58c-.07.31 0 .36.3.37H5c.39 0 .46.05.44.44a.87.87 0 00.56.22c.12 0 .25 0 .37.08s.17.05.19.1c.1.28.39.31.6.44s.45.21.68.31.64.25.95.39a.82.82 0 01.51.53.31.31 0 01-.36.11 3.81 3.81 0 01-.45-.13 3.18 3.18 0 00-.33-.1c-.32 0-.46 0-.45.38s0 .79.06 1.18c.05.56.11 1.12.17 1.68A6.85 6.85 0 009.61 13a7.45 7.45 0 004.14 2.42.51.51 0 00.57-.18 2.85 2.85 0 01.48-.44.63.63 0 01.35-.11c.21 0 .28.12.18.3a.94.94 0 01-.16.23l-.23.3h.41a4.57 4.57 0 01.52 0c.27.07.54.13.7-.06.29 0 .53.06.76.07h.44a.25.25 0 01.27.25c0 .15 0 .3-.18.35l-.42.11-.65.19a.53.53 0 01-.21 0 1.08 1.08 0 00-.73.05 6.26 6.26 0 01-1.6.29A9.87 9.87 0 0113 17a11.73 11.73 0 01-1.19 0c-.63-.06-1.26-.13-1.89-.23A8 8 0 016 14.85a10.21 10.21 0 01-2.12-2.69 11.32 11.32 0 01-1.34-3.54c-.09-.38-.21-.75-.32-1.12a2.48 2.48 0 00-.17-.32V6.3a1.65 1.65 0 01.69-.59c-.19-.24-.15-.45.1-.57l.3-.1c.32-.11.43-.32.29-.62a.22.22 0 01.08-.32l.22-.17c.29-.24.3-.29 0-.55s-.28-.47 0-.72zm.51 6.46a1.51 1.51 0 010 .73.28.28 0 01-.25-.27 1.54 1.54 0 01.07-.38c-.21-.21-.3-.18-.45.2.13.14.38.22.28.49l.06.06a.79.79 0 01.3.47c.09.26.13.26.35 0l-.5-.42.22-.08c.08-.17-.09-.42.24-.49V10l.42-.31a2 2 0 01.16.22c.08.11.22.21.15.35s-.26.06-.4.07l.07.08a.77.77 0 01.39.64c0 .13.06.27.26.23s.13 0 .19.07c.13-.18.19-.2.33-.06a3.41 3.41 0 01.31.45l-.14-.45h.06a4.31 4.31 0 01.39.46c.13.2.08.32-.14.42h-.14a1 1 0 00.53.36 1.21 1.21 0 01.36.28.39.39 0 01.09.29c0 .08-.13.14-.21.23a3.72 3.72 0 011.88 1.33l-.36.08.52.07c-.11.42-.08.48.3.51a.36.36 0 01.3.2c0 .09.13.16.23.1s.23-.19.39-.1a1.24 1.24 0 011.08.07c.34.12.67.24 1 .34a.49.49 0 00.48-.08c-.32-.13-.68-.13-.95-.37h-.09a1.16 1.16 0 01-.83-.48.73.73 0 00-.39-.24 2.86 2.86 0 01-1.06-.53c-.15-.13-.33-.27-.37-.44a1.54 1.54 0 00-.36-.56c-.15-.19-.28-.39-.42-.59s-.3-.39-.46-.59l-.1.16c-.12-.31-.13-.32-.47-.54l.17-.25-.48-1.75-.26.33c0-.22 0-.39.18-.48a.21.21 0 000-.17c-.1-.08-.06-.17 0-.26a.49.49 0 000-.24c-.14-.27 0-.55-.06-.82a.81.81 0 000-.22c0-.08-.1-.16-.14-.23l-.21.25a.54.54 0 010-.85l.26.23a6 6 0 000-.6c0-.22-.13-.26-.35-.19l-.37.08-.52.11.18.26-.57-.12c-.07.24-.28.18-.46.2a.53.53 0 01-.5.36c-.42.06-.42.05-.24.42.12.24 0 .42-.24.42s-.34.25-.47.4.06.28.17.26a.69.69 0 01.59.31zM3.17 6.23a3.93 3.93 0 00-.58.2c-.31.16-.35.37-.14.68.09-.51.16-.74.52-.6 0 .11-.09.23-.05.3a.4.4 0 00.37.24.22.22 0 00.15-.05c.13-.16.4-.26.52-.15s.25.08.37 0 .34-.16.51-.24a2 2 0 01.86-.24A5.84 5.84 0 007.41 6a1 1 0 00.45-.31c.17-.22.08-.39-.2-.4s-.57 0-.85 0l.09.36h-.26a1 1 0 01-.17-.3c-1 .12-1.86.53-2.8.68 0 .15.2.12.13.28s.07.16.11.25c-.33.23-.6.09-.74-.33zM4 11.72h-.06l.14.22c.3.47.59.95.91 1.41a7.9 7.9 0 00.69.84 6 6 0 00.53.48.78.78 0 00.59.33.48.48 0 00-.34-.35 3 3 0 01-.9-.82 1.07 1.07 0 00-.29-.27.55.55 0 01-.27-.3 1.38 1.38 0 00-.47-.75v-.08zm1.59.38c.09.15.12.31.27.43s.12.28.31.34a2.7 2.7 0 01.44.24l-.54-.77.23-.34-.45-.13zm-.13-1.45a.21.21 0 000 .06c0 .23 0 .28-.25.2l-.17-.07c-.09 0-.18-.12-.3 0 .07.14.11.28.27.36l.68.32a.65.65 0 00.2 0zm.42-5.86l-1.28.35.51.11c.1-.17.14-.18.25 0l.22.24c.29 0 .09-.35.35-.31 0-.18-.02-.25-.04-.39zm1.76 10.75c.31.25.71.29.92.61a3.9 3.9 0 001.31.34zm3.27 1.13a6.82 6.82 0 002.34 0c-.78.11-1.56-.1-2.34 0zM3.24 9.56L3 9.38l.6 1.32a.77.77 0 00-.07-.37c0-.12-.16-.26-.13-.37a1 1 0 00-.16-.62h-.06zm4 4.23a1.61 1.61 0 00-1-.25.74.74 0 00.96.25zm-1.94-9l.08-.3a1.27 1.27 0 00-.58-.18c.08.37.2.45.46.46zM15.35 16v-.09a3 3 0 00-1.2 0v.06zM3.77 3h.51c0-.17-.12-.24-.24-.24s-.23.11-.27.24zm8 12.63a.45.45 0 00-.42.23l.35.09z"/><path class="a" d="M6.34 9.81c0 .22-.2.28-.39.31a1.42 1.42 0 01-.36-.89c.41.02.56.32.75.58zM6.91 9c.21.33.39.63.22 1a.73.73 0 01-.22-1zm-1.29-.26c-.25-.1-.57-.08-.67-.43.31-.2.56-.06.81.1v.07l-.48-.16.41.35zm-.87.38l-.27-.38.24.06-.07-.18c.14.06.28.09.34.17A.38.38 0 015 9.1c-.07.16-.19.06-.29 0zm.96-.87c-.39-.14-.41-.17-.39-.48.3.15.3.15.39.48zM4.23 6.42c0-.14.09-.18.2-.17s.21.13.29.34c-.21.05-.33-.11-.49-.17zm.77-.5a1.08 1.08 0 01.85-.19c-.06.14-.06.14-.85.19z"/></svg>