<svg xmlns="http://www.w3.org/2000/svg" viewBox="0 0 20 20"><path fill="#fabb05" d="M0 0h20v20H0z"/><path d="M3.8 15.52a4.47 4.47 0 01-1.68-2.59 4.5 4.5 0 011.07-4.06 3.67 3.67 0 01.72-.64L4 8.18c.08-.25.15-.5.25-.75a5.8 5.8 0 011.19-1.88 6.2 6.2 0 013.1-1.81 5.8 5.8 0 011.81-.16 6.17 6.17 0 013.78 1.55c.18.18.37.35.54.54a6.21 6.21 0 011 1.53 6.76 6.76 0 01.33.89.18.18 0 00.09.13 4.51 4.51 0 011.77 2.66 4 4 0 01.14 1.31 4.52 4.52 0 01-3.68 4.17 4.11 4.11 0 01-.78.07h-7a4.52 4.52 0 01-2.74-.91zm3.64-8h.06A4.5 4.5 0 019.89 8.9l.22.27-2 2a.43.43 0 010-.07 1.73 1.73 0 10-2.29 2.4 2 2 0 00.76.15h6.88a1.5 1.5 0 00.37 0 1.73 1.73 0 000-3.4h-.32v-.32a4.11 4.11 0 00-.07-.78 3.49 3.49 0 00-.77-1.58c-.14-.16-.31-.3-.46-.45a3.43 3.43 0 00-3.06-.61 3.37 3.37 0 00-1.71.97z" fill="#fff"/></svg>