<svg xmlns="http://www.w3.org/2000/svg" viewBox="0 0 20 20"><defs><style>.b{fill:#fff}</style></defs><path fill="#2dbcaf" d="M0 0h20v20H0z"/><path class="b" d="M3.21 9l.17-.21a.1.1 0 01.08 0h2.75l-.1.21A.12.12 0 016 9zM2 9.72l.16-.21a.15.15 0 01.09 0h3.56s.05 0 0 .05l-.06.18a.06.06 0 01-.07.05zm1.92.72l.11-.2a.12.12 0 01.08 0h1.53v.19a.06.06 0 01-.06 0zM12 8.86l-1.31.35c-.11 0-.12 0-.22-.08a1 1 0 00-.37-.3A1.36 1.36 0 008.69 9a1.65 1.65 0 00-.79 1.48 1.2 1.2 0 001 1.22 1.44 1.44 0 001.32-.51c.07-.09.14-.18.21-.29H9c-.16 0-.2-.1-.15-.23s.29-.65.4-.85a.21.21 0 01.19-.13h2.84v.63a3.39 3.39 0 01-2.86 2.85 2.74 2.74 0 01-2.09-.51 2.42 2.42 0 01-1-1.73 3.07 3.07 0 01.6-2.33 3.43 3.43 0 012.18-1.35 2.7 2.7 0 012.07.38 2.42 2.42 0 01.9 1.1c.05.07.02.11-.08.13z"/><path class="b" d="M14.58 13.17a2.94 2.94 0 01-1.9-.69 2.4 2.4 0 01-.84-1.5 3 3 0 01.63-2.35 3.24 3.24 0 012.18-1.3 2.93 2.93 0 012.22.39A2.43 2.43 0 0118 9.46a3 3 0 01-.9 2.64 3.57 3.57 0 01-1.87 1c-.23.04-.45.05-.65.07zM16.44 10a1.56 1.56 0 000-.25 1.28 1.28 0 00-1.59-1 1.69 1.69 0 00-1.36 1.36 1.29 1.29 0 00.72 1.47 1.45 1.45 0 001.27-.05 1.72 1.72 0 00.96-1.53z"/></svg>