<svg xmlns="http://www.w3.org/2000/svg" viewBox="0 0 20 20"><defs><style>.b{fill:#fff}</style></defs><path fill="#478cbe" d="M0 .04h20v20H0z"/><path class="b" d="M14.06 14.43l-1 .07-1 .08h-.2c0-.14-.05-.28-.07-.43l-.09-.63a.3.3 0 00-.26-.23H8.7a.29.29 0 00-.22.06.29.29 0 00-.11.16c0 .2-.07.4-.1.6s0 .31-.07.47h-.12L7 14.5H5.94a.74.74 0 010-.14v-1.01a.29.29 0 00-.35-.35l-1.28-.1-1.25-.12h-.07a.76.76 0 010-.15v-3.9a.53.53 0 00-.11-.34L2 7.16a10.6 10.6 0 011.44-1.89 12.47 12.47 0 011.42.82A8.44 8.44 0 016.37 5l-.14-1.76a9.12 9.12 0 012.15-.74A14.68 14.68 0 019.17 4a5.2 5.2 0 011.67 0 15.93 15.93 0 01.79-1.54 8.94 8.94 0 012.13.73A17.38 17.38 0 0113.63 5a8.57 8.57 0 011.52 1.11 14.17 14.17 0 011.42-.82A10.41 10.41 0 0118 7.14a14.72 14.72 0 01-.89 1.29.35.35 0 00-.08.24v4.09h-.08l-.77.07-1 .11-.7.06a.28.28 0 00-.28.28l-.06 1zm1.18-4.17a1.56 1.56 0 00-1.55-1.57 1.57 1.57 0 000 3.13 1.55 1.55 0 001.55-1.56zm-10.47 0a1.56 1.56 0 103.12 0 1.58 1.58 0 00-1.56-1.57 1.56 1.56 0 00-1.56 1.56zm5.74.55v-.74a.38.38 0 00-.12-.28.52.52 0 00-.64-.11.42.42 0 00-.25.38v1.47a.53.53 0 000 .18.48.48 0 00.36.26.5.5 0 00.6-.48c.03-.24.05-.49.05-.69z"/><path class="b" d="M8.88 13.85h2.25v.26l.09.7c.05.28.17.37.45.32h.09l1.07-.06.84-.06.63-.06c.16 0 .25-.11.27-.29v-.5-.6h.26l.75-.07 1.05-.11H17v.9a2.15 2.15 0 01-.32.95 3.49 3.49 0 01-1.38 1.29 7.52 7.52 0 01-2 .74 11.65 11.65 0 01-1.18.21l-.9.08H9.77q-.6 0-1.2-.06a12.61 12.61 0 01-2.21-.38 6.74 6.74 0 01-2-.88 3.22 3.22 0 01-1.08-1.18 2.31 2.31 0 01-.28-.9v-.73a.28.28 0 010-.08c.78.06 1.55.14 2.33.22v.11l.06 1a.29.29 0 00.31.3l1.3.09h.79l.55.06a.31.31 0 00.38-.28c0-.17 0-.35.08-.53s.05-.31.08-.46zM14.57 10.36a1 1 0 01-1 1 1 1 0 111-1zM6.48 9.31a1 1 0 11-1 1 1 1 0 011-1z"/></svg>