<svg xmlns="http://www.w3.org/2000/svg" viewBox="0 0 20 20"><path fill="#f6de1e" d="M0 0h20v20H0z"/><path d="M10.08 13.34l1.83-1.07a4.5 4.5 0 00.3.42 2.38 2.38 0 002.54.89 1.54 1.54 0 00.46-.19 1 1 0 00.15-1.66 1.77 1.77 0 00-.46-.31c-.44-.22-.9-.42-1.35-.62a6.92 6.92 0 01-1.78-1 3.08 3.08 0 01-1-2.69 2.92 2.92 0 012.56-2.69 4.59 4.59 0 011.88.06 3.28 3.28 0 012.13 1.71l-1.78 1.09c-.09-.13-.17-.26-.26-.38a1.43 1.43 0 00-1.55-.55 1 1 0 00-.5 1.65 1.87 1.87 0 00.59.42c.49.25 1 .45 1.5.68a7 7 0 011.53.91A3 3 0 0118 12.76a2.89 2.89 0 01-2.24 2.7A5.34 5.34 0 0112 15.2a3.84 3.84 0 01-1.92-1.86zM2 13.59l1.84-1.12.36.53a1.35 1.35 0 001.59.57.81.81 0 00.61-.52 3.5 3.5 0 00.13-.56 4.17 4.17 0 000-.5V4.46h2.26a1.65 1.65 0 010 .21v7.53a4.72 4.72 0 01-.15 1.3 2.72 2.72 0 01-2 2 4.27 4.27 0 01-3.1-.28A3.37 3.37 0 012 13.59z"/></svg>