<svg xmlns="http://www.w3.org/2000/svg" viewBox="0 0 20 20"><defs><style>.b{fill:#fff}</style></defs><path fill="#ec2227" d="M0 0h20v20H0z"/><path class="b" d="M13.37 13.8l-.27-.05c.33-.47.94-.64 1.3-1.07 1-.75.55-2.13-.74-1.73a.58.58 0 01-.1-.21c3.26-1.33 2.95 2.67-.19 3.06zM10.56 11.35c-.09 0-.16-.08-.22-.12 1.49-1.43-1.75-2.88 0-4.49.82-.75 2.14-1.67 3.3-1.51-5.84 3.36.87 3.61-3.08 6.12z"/><path class="b" d="M10.22 11.17C4 5.67 11.71 6.8 11.45 2c.67-.19.59 1.17.57 1.61C11.78 5.53 9.39 6.24 8.84 8c-.04 1.21 1.16 2 1.38 3.17zM8.54 17.18c-1.46-.08-3.06.06-4.4-.57-.65-1.12 1.78-1.37 2.52-1.31l.18.25a3.68 3.68 0 00-1.58.45c.68.59 10.34.76 9.38-.62 1.75.63-1.22 1.56-2 1.56a32 32 0 01-4.1.24z"/><path class="b" d="M9.72 15.66c-1 .17-4.29-.66-1.94-1.54l.16.12a1.45 1.45 0 01-.09.22 8 8 0 002.89.08 2 2 0 011.82.37v.2a7.94 7.94 0 01-2.84.55zM9.82 13.93a7.23 7.23 0 01-3.17-.47c-.56-.69.57-1.1 1.11-1.1-1.16 1.07 1.93.64 2.49.64.88 0 1.73-.42 2.48.18a1.21 1.21 0 01.09.2 7.84 7.84 0 01-3 .55z"/><path class="b" d="M7.89 10.57a1.94 1.94 0 01.51.18 7.7 7.7 0 00-1.7.63c2.28.51 4.62-.15 6.88-.17-1.4 1.9-13.58.88-5.69-.64zM10 18a10 10 0 01-4-.64c.51-.28 1.13 0 1.68 0 2.76.07 6 .43 8.29-1.29-.44 2.1-4.23 1.74-5.97 1.93z"/></svg>