<svg xmlns="http://www.w3.org/2000/svg" viewBox="0 0 20 20"><path fill="#ff2d20" d="M0 0h20v20H0z"/><path d="M17.93 5.62v3.5a.26.26 0 01-.13.22L14.93 11v3.29a.23.23 0 01-.13.21L8.79 18h-.06a.28.28 0 01-.13 0h-.06l-6-3.47a.23.23 0 01-.13-.21V3.94L5.53 2a.28.28 0 01.25 0l3 1.74a.13.13 0 010 .06v6.44L11.42 9V5.68a.13.13 0 010-.06l3-1.73a.23.23 0 01.25 0l3 1.73s.26-.01.26 0zM17.43 9V6.12l-1.05.6-1.45.84v2.86L17.44 9zm-3 5.17v-2.89L13 12.1l-4.09 2.33v2.89zM2.9 4.42v9.72l5.51 3.18v-2.89L5.53 12.8V5.86L4 5l-1.1-.58zm2.75-1.88L3.15 4l2.5 1.45L8.16 4 5.65 2.54zm1.31 9l1.45-.83V4.42l-1 .6-1.51.84v6.29zm7.72-7.3l-2.51 1.45 2.51 1.44 2.5-1.45zm-.25 3.32L13 6.72l-1.05-.6V9l1.45.84 1.06.61zM8.66 14l3.68-2.1 1.83-1.05-2.5-1.44-2.88 1.66-2.63 1.51z" fill="#fff" fill-rule="evenodd"/></svg>