<svg xmlns="http://www.w3.org/2000/svg" viewBox="0 0 20 20"><defs><style>.b{fill:#fff}</style></defs><path fill="#069c02" d="M0 0h20v20H0z"/><path class="b" d="M9.87 6.9c-2 0-4.17-.39-4.17-1.25s2.16-1.26 4.17-1.26S14 4.78 14 5.65 11.88 6.9 9.87 6.9zm0-2c-2.43 0-3.68.54-3.68.77s1.25.76 3.68.76 3.68-.54 3.68-.76-1.25-.79-3.68-.79z"/><path class="b" d="M9.87 13.43h-.14a4.51 4.51 0 01-2.83-1c-1.44-1.27-1.21-6.57-1.2-6.8h.49c-.07 1.46 0 5.47 1 6.36a4.07 4.07 0 002.52.91H10a4 4 0 002.5-.9c1.07-.9 1.13-4.91 1.06-6.37h.49c0 .23.24 5.53-1.21 6.77a4.52 4.52 0 01-2.82 1z"/><path class="b" d="M9.87 14.2h-.12a5.62 5.62 0 01-1.49-.2A1.72 1.72 0 017 12.38h.49a1.26 1.26 0 00.9 1.12 4.75 4.75 0 001.36.21.54.54 0 00.18 0 5.54 5.54 0 001.36-.2 1.28 1.28 0 00.9-1.13h.49A1.75 1.75 0 0111.47 14a6.34 6.34 0 01-1.47.2zm3.56-3.2l-.06-.49a3.56 3.56 0 001.71-.74 2.13 2.13 0 00.76-2.23c-.17-.86-1.84-.88-2-.88v-.5c.53 0 2.28.1 2.52 1.29a2.58 2.58 0 01-1 2.72 4 4 0 01-1.93.83z"/><path class="b" d="M13.62 10.15l-.07-.5a3.07 3.07 0 001.1-.44 1.13 1.13 0 00.49-1.31c-.05-.31-.53-.5-1.3-.48v-.5h.09c1.38 0 1.68.56 1.73.9a1.62 1.62 0 01-.72 1.81 3.87 3.87 0 01-1.32.52z"/><path class="b" d="M10 15.61C5.51 15.61 2 14 2 12c0-1.34 1.49-2.52 4-3.18l.12.48c-2.22.59-3.61 1.62-3.61 2.7 0 1.71 3.44 3.16 7.51 3.16s7.51-1.45 7.51-3.16c0-.78-.71-1.53-2-2.13l.21-.44C17.19 10.06 18 11 18 12c0 2-3.51 3.61-8 3.61z"/><path class="b" d="M14.84 9.56a9.94 9.94 0 00-1.2-.36l.11-.48a10.4 10.4 0 011.25.37zM10 15c-2.7 0-4.74-.85-4.74-2 0-.56.51-1.07 1.42-1.44l.18.46c-.7.28-1.1.64-1.1 1 0 .71 1.74 1.5 4.24 1.5s4.24-.79 4.24-1.5c0-.37-.49-.76-1.3-1.05l.16-.47c1.06.37 1.64.91 1.64 1.52C14.74 14.19 12.7 15 10 15z"/></svg>