<svg xmlns="http://www.w3.org/2000/svg" viewBox="0 0 20 20"><path fill="#004065" d="M0 0h20v20H0z"/><path d="M11.92 10.43c.13.82.23 1.65.28 2.48a2.51 2.51 0 01-.43 1.45c-.07.24-.28 0-.43 0-.36 0-.5-.4-.69-.64s-.06-.46.07-.66.2-.33.4-.33.18-.28.15-.42c.14-.21.05-.52.19-.74s.16-.48.25-.69 0-.43.18-.49M11.69 2c-.31 0-.55.17-.81.29s-.43.13-.65.18c-.17.33-.54.52-.74.83a3.19 3.19 0 01-1.1 1.55 3.13 3.13 0 00-1.33 2C7 7 7 7.24 6.9 7.39c-.29.08-.14-.3-.17-.48s.19-.45.21-.71a1.08 1.08 0 00.12-.61c0-.47.11-1-.23-1.42-.19-.12-.13-.36-.2-.55A2.46 2.46 0 005.89 3c-.23 0-.45-.33-.69-.19s-.43.18-.52.42-.39.21-.61.28-.63 0-.86.23-.59.54-.48.91c.26.51.93.25 1.29.56a9.63 9.63 0 01-.4 1 6.67 6.67 0 000 1.34c.07.45-.05 1 .33 1.34.21.08.2.33.28.51s.24-.06.31.12 0 .33.12.46a.85.85 0 01.46.24 3.29 3.29 0 01.57.48c.13.27.3-.26.44-.06a.33.33 0 00.43.18 1.54 1.54 0 00.74-.32 11.72 11.72 0 01.11 1.5 7.53 7.53 0 01.16 1.16 5.08 5.08 0 01.17 1.17 4.11 4.11 0 01-.4 2.39.57.57 0 01-.46.47c-.16.07-.5.21-.39.44a1.46 1.46 0 001.43.13c.29-.14 0-.5.18-.71.2-.75.1-1.55.33-2.3a2.23 2.23 0 00.2-1.22c0-.25-.06-.55.1-.76A1 1 0 019 12.1a9.2 9.2 0 00.08-1.17 1.75 1.75 0 01.72-.07c0 .22-.16.47-.11.71a1.1 1.1 0 01-.15.79 1.63 1.63 0 00.1 1.32c.44.48 1 .82 1.43 1.34a.3.3 0 010 .42.91.91 0 01-.56.6c-.17.07-.45.33-.25.51a2.24 2.24 0 001.23-.08c.27-.1.18-.43.28-.63a4.93 4.93 0 01.4.61c.17.25.46 0 .66 0a2.12 2.12 0 00-.21-1.06c-.1-.22-.45-.23-.44-.49a6.69 6.69 0 011-1.73c.29-.28.07-.69.09-1a4 4 0 01.61-2.55 11.12 11.12 0 00.39 1.24 3.72 3.72 0 00.62 1.3c.13.46.09 1 .18 1.47a6.2 6.2 0 01-.13 2.5c0 .3-.26.52-.24.82s.4.05.56.16a.61.61 0 00.75-.33 3.94 3.94 0 01-.14-.7 4.43 4.43 0 01-.14-2.14c0-.39.26-.86-.05-1.19-.08-.36.06-.74 0-1.11a7.54 7.54 0 01-.07-2.84c.05-.13 0-.38.14-.45a1.12 1.12 0 01.15.65 2.13 2.13 0 010 1.2c-.24.31-.09.72-.06 1.07s.29.06.33-.09a6.6 6.6 0 00.53-1.29c.16-.2 0-.44 0-.66.24 0 .15-.29 0-.4a3.4 3.4 0 00-.37-1.27A5.93 5.93 0 0115.29 6c-.3-1-1.16-1.57-1.45-2.53a2.08 2.08 0 00-.91-1.34q-.33-.13-.66-.23a3.85 3.85 0 01-.58.08" fill="#fff"/></svg>