<svg xmlns="http://www.w3.org/2000/svg" viewBox="0 0 20 20"><path fill="#8892bf" d="M0 0h20v20H0z"/><path d="M3.31 7.81h2.38a1.86 1.86 0 011.51.6A2 2 0 017.51 10a3.06 3.06 0 01-.27.91 2.83 2.83 0 01-.57.81 2 2 0 01-1 .59 4.48 4.48 0 01-1 .12H3.61l-.33 1.67H2.05l1.26-6.29m1 1l-.53 2.64h.23a4.42 4.42 0 001.41-.17c.38-.12.64-.55.77-1.28s0-1-.32-1.07a4 4 0 00-1.18-.13h-.34m4.56-2.67h1.22l-.34 1.69h1.1a2.14 2.14 0 011.34.37c.3.23.39.68.27 1.33l-.59 2.94h-1.24l.56-2.8a.81.81 0 00-.05-.66.78.78 0 00-.61-.18h-1l-.73 3.62h-1.2l1.27-6.31m4.9 1.68h2.37a1.87 1.87 0 011.52.6A2.06 2.06 0 0118 10a2.82 2.82 0 01-.28.91 2.62 2.62 0 01-.56.81 2 2 0 01-1 .59 4.57 4.57 0 01-1 .12h-1.05l-.33 1.67h-1.24l1.27-6.32m1 1l-.53 2.64h.23A4.42 4.42 0 0016 11.3c.38-.12.63-.55.76-1.28s0-1-.31-1.07a4 4 0 00-1.18-.13h-.38" fill="#fff"/></svg>