<svg xmlns="http://www.w3.org/2000/svg" viewBox="0 0 20 20"><defs><style>.b{fill:#fff}</style></defs><path fill="#ab2430" d="M0 0h20v20H0z"/><circle class="b" cx="10.46" cy="3.8" r="1.51"/><circle class="b" cx="6.38" cy="12.02" r=".74"/><circle class="b" cx="7.96" cy="13.49" r=".54"/><circle class="b" cx="5.82" cy="9.36" r=".94"/><circle class="b" cx="6.99" cy="6.28" r="1.17"/><circle class="b" cx="9.73" cy="13.83" r=".46"/><circle class="b" cx="10.93" cy="13.19" r=".3"/><circle class="b" cx="3.51" cy="14.78" r="1.51"/><circle class="b" cx="12.67" cy="14.2" r=".74"/><circle class="b" cx="13.16" cy="12.1" r=".54"/><circle class="b" cx="10.65" cy="16.01" r=".94"/><circle class="b" cx="7.39" cy="16.55" r="1.17"/><circle class="b" cx="12.57" cy="10.39" r=".46"/><circle class="b" cx="11.41" cy="9.68" r=".3"/><circle class="b" cx="16.49" cy="15.3" r="1.51"/><circle class="b" cx="11.4" cy="7.66" r=".74"/><circle class="b" cx="9.34" cy="8.29" r=".54"/><circle class="b" cx="13.99" cy="8.5" r=".94"/><circle class="b" cx="16.08" cy="11.06" r="1.17"/><circle class="b" cx="8.16" cy="9.66" r=".46"/><circle class="b" cx="8.12" cy="11.01" r=".3"/></svg>