<svg xmlns="http://www.w3.org/2000/svg" viewBox="0 0 20 20"><defs><style>.b{fill:#fff}</style></defs><path fill="#5a9fd4" d="M0 0h20v20H0z"/><path class="b" d="M9.91 2a10.3 10.3 0 00-1.83.16c-1.61.28-1.91.88-1.91 2v1.43H10v.49H4.74A2.38 2.38 0 002.36 8a7.1 7.1 0 000 3.88c.27 1.13.92 1.94 2 1.94H5.7v-1.73a2.43 2.43 0 012.38-2.38h3.81a1.92 1.92 0 001.91-1.94V4.14a2.13 2.13 0 00-1.91-2A12 12 0 009.91 2zM7.84 3.17a.73.73 0 11-.71.73.73.73 0 01.71-.73z"/><path class="b" d="M14.28 6.08v1.69a2.45 2.45 0 01-2.39 2.42H8.08a2 2 0 00-1.91 1.94v3.64c0 1 .9 1.64 1.91 1.94a6.42 6.42 0 003.81 0c1-.28 1.91-.84 1.91-1.94v-1.46H10v-.48h5.72c1.11 0 1.52-.77 1.91-1.94a6.55 6.55 0 000-3.88c-.27-1.1-.8-1.93-1.91-1.93zm-2.15 9.2a.73.73 0 11-.71.73.73.73 0 01.71-.73z"/></svg>