<svg xmlns="http://www.w3.org/2000/svg" viewBox="0 0 20 20"><defs><style>.b{fill:#fff}</style></defs><path fill="#41cd52" d="M0 0h20v20H0z"/><path class="b" d="M13.81 4.51h1.84V7H18v1.58h-2.39v4a2.64 2.64 0 00.17 1.08.73.73 0 00.69.34h1.44l.09 1.35a6.18 6.18 0 01-2.93.05 1.44 1.44 0 01-.94-.78 5.64 5.64 0 01-.32-2.16V8.53h-1.29V7h1.28c.01-.87 0-1.68.01-2.49zM11 13.2a10.38 10.38 0 00.43-3.46 9.69 9.69 0 00-.55-3.42 3.64 3.64 0 00-1.2-1.72 5 5 0 00-2.83-.77 5.29 5.29 0 00-3 .72 3.93 3.93 0 00-1.44 2.13 11.16 11.16 0 00-.41 3.4 10.37 10.37 0 00.45 3.14 3.73 3.73 0 001 1.61 4.26 4.26 0 002.28.89 7 7 0 002.05 0l1.5 2.48 1.72-.84-1.38-2.27A3.84 3.84 0 0011 13.2zm-1.7-1.43a3.27 3.27 0 01-.62 1.66 2.37 2.37 0 01-1.61.71 3.44 3.44 0 01-1.85-.3 1.8 1.8 0 01-.78-.79 5.11 5.11 0 01-.38-1.28 11.2 11.2 0 010-4.24 3.12 3.12 0 01.7-1.45 2.16 2.16 0 011.31-.58 3.52 3.52 0 011.79.17 2 2 0 011 1 6.47 6.47 0 01.54 2.15 13.85 13.85 0 01-.08 2.95z"/></svg>