<svg xmlns="http://www.w3.org/2000/svg" viewBox="0 0 20 20"><defs><style>.b{fill:#fff}</style></defs><path fill="#c00" d="M0 0h20v20H0z"/><path class="b" d="M2.49 15h5.58S7 10.18 10.53 8.21c.77-.37 3.22-1.77 7.22 1.2a3.08 3.08 0 01.25-.19S14.33 5.55 10.25 6c-2.06.15-4.58 2-6.06 4.49A12.33 12.33 0 002.49 15z"/><path class="b" d="M2.49 15h5.58S7 10.18 10.53 8.21c.77-.37 3.22-1.77 7.22 1.2a3.08 3.08 0 01.25-.19S14.33 5.55 10.25 6c-2.06.15-4.58 2-6.06 4.49A12.33 12.33 0 002.49 15z"/><path class="b" d="M2.49 15h5.58S7 10.18 10.53 8.21c.77-.37 3.22-1.77 7.22 1.2a3.08 3.08 0 01.25-.19S14.33 5.55 10.25 6c-2.06.15-4.59 2-6.07 4.49A12.19 12.19 0 002.49 15zm11.62-8.64v-.47a3.16 3.16 0 00-.68-.25v.46z"/><path class="b" d="M13.44 7.85v.45a4.29 4.29 0 01.7.08v-.43a6 6 0 00-.7-.1zm-2.61-2.2h.07l-.15-.43a5.29 5.29 0 00-.67 0l.13.41c.21.03.41.02.62.02zm.33 2.6l.17.49a3.92 3.92 0 01.61-.25L11.78 8a4.81 4.81 0 00-.62.25zM8 6.39l-.32-.48-.55.3.33.49zm1.41 3.18l.34.51a3.89 3.89 0 01.41-.5l-.32-.48a3.15 3.15 0 00-.43.47zm-1 2.27l.58.45a4.69 4.69 0 01.14-.82l-.5-.41a6.62 6.62 0 00-.25.78zM5.29 8.49l-.5-.44c-.18.18-.36.35-.52.53l.54.47c.19-.19.32-.38.48-.56zm-2.13 3.15l-.81-.29c-.13.3-.28.65-.35.84l.81.3c.09-.24.24-.59.35-.85zm5.12 2a7.43 7.43 0 00.08.89l.85.3c-.06-.27-.13-.58-.17-.91z"/></svg>