<svg xmlns="http://www.w3.org/2000/svg" viewBox="0 0 20 20"><defs><style>.b{fill:#fff}</style></defs><path fill="#61dafb" d="M0 0h20v20H0z"/><circle class="b" cx="10" cy="10" r="1.43"/><path class="b" d="M10 13.27c-4.49 0-8-1.44-8-3.27s3.51-3.27 8-3.27 8 1.44 8 3.27-3.51 3.27-8 3.27zm0-5.84c-4.3 0-7.3 1.35-7.3 2.57s3 2.57 7.3 2.57 7.3-1.35 7.3-2.57-3-2.57-7.3-2.57z"/><path class="b" d="M13.19 17.13A4.23 4.23 0 0110.7 16a15.83 15.83 0 01-3.53-4.36C4.93 7.75 4.41 4 6 3.07c.81-.47 2-.13 3.3.94a15.83 15.83 0 013.53 4.36c2.24 3.88 2.76 7.63 1.17 8.56a1.57 1.57 0 01-.81.2zM6.82 3.56a1 1 0 00-.47.11c-1.06.61-.73 3.89 1.42 7.62a15.38 15.38 0 003.37 4.16c1.06.86 2 1.18 2.51.88 1.06-.61.73-3.89-1.42-7.62a15.38 15.38 0 00-3.37-4.16 3.62 3.62 0 00-2.04-.99z"/><path class="b" d="M6.81 17.13a1.57 1.57 0 01-.81-.2C4.41 16 4.93 12.25 7.17 8.37A15.83 15.83 0 0110.7 4c1.3-1.06 2.49-1.4 3.3-.93 1.59.92 1.07 4.68-1.17 8.56A15.83 15.83 0 019.3 16a4.23 4.23 0 01-2.49 1.13zm6.37-13.57a3.62 3.62 0 00-2 1 15.38 15.38 0 00-3.41 4.15c-2.15 3.73-2.48 7-1.42 7.62.53.3 1.45 0 2.51-.88a15.38 15.38 0 003.37-4.16c2.15-3.73 2.48-7 1.42-7.62a1 1 0 00-.47-.11z"/></svg>