<svg xmlns="http://www.w3.org/2000/svg" viewBox="0 0 20 20"><defs><style>.b{fill:#fff}</style></defs><path fill="#a41e11" d="M0 0h20v20H0z"/><path class="b" d="M18 6.17c0-.15-.22-.29-.64-.44-.83-.31-5.23-2.06-6.07-2.37a2.55 2.55 0 00-2.17.06l-6.5 2.52c-.42.16-.62.32-.62.48V8c0 .17.22.34.65.54C3.5 9 8.2 10.88 9 11.23a2.08 2.08 0 002.2-.13c.95-.49 5.37-2.31 6.22-2.75.44-.23.63-.41.63-.57V6.19M18 11.55c0 .15-.2.33-.63.55-.85.44-5.27 2.26-6.22 2.75A2.08 2.08 0 019 15c-.75-.35-5.45-2.25-6.3-2.66-.48-.22-.7-.34-.7-.55v1.61c0 .17.22.34.65.54.85.4 5.55 2.31 6.3 2.66a2.08 2.08 0 002.2-.13c.95-.49 5.37-2.31 6.22-2.75.44-.23.63-.41.63-.57v-1.59"/><path class="b" d="M18 8.91c0 .16-.2.33-.63.55-.85.45-5.27 2.27-6.22 2.76a2.1 2.1 0 01-2.2.13C8.2 12 3.5 10.09 2.65 9.69 2.22 9.48 2 9.31 2 9.15v1.62c0 .16.22.33.65.53.85.41 5.55 2.31 6.35 2.7a2.06 2.06 0 002.2-.13c.95-.49 5.37-2.31 6.22-2.75.44-.23.63-.4.63-.56V8.92"/></svg>