<svg xmlns="http://www.w3.org/2000/svg" viewBox="0 0 20 20"><defs><style>.b{fill:#fff}</style></defs><path fill="#764abc" d="M0 0h20v20H0z"/><path class="b" d="M13 13a1.13 1.13 0 001.08-1.19 1.15 1.15 0 00-1.2-1.08 1.08 1.08 0 00-1.08 1.08v.09a1.21 1.21 0 00.32.76 7.12 7.12 0 01-3.38 3.17 5.36 5.36 0 01-3.31.65 2.79 2.79 0 01-2.06-1.2 3 3 0 01-.16-3.12 4.68 4.68 0 011.38-1.62 10.65 10.65 0 01-.27-1.08c-2.94 2.16-2.64 5-1.74 6.36a4.19 4.19 0 003.52 1.65 5 5 0 001.23-.14A7.77 7.77 0 0013 13z"/><path class="b" d="M16.62 10.49a8.24 8.24 0 00-6.41-2.8h-.33a1.07 1.07 0 00-1-.61 1.14 1.14 0 000 2.27A1.09 1.09 0 0010 8.66h.37A7.74 7.74 0 0114.66 10a5.42 5.42 0 012.16 2.59 2.8 2.8 0 010 2.4A3 3 0 0114 16.63a5 5 0 01-2-.43c-.23.21-.63.53-.91.74a6.25 6.25 0 002.61.62 4.39 4.39 0 004-2.16 4.57 4.57 0 00-1.08-4.91z"/><path class="b" d="M6.31 13.35a1.14 1.14 0 101.14-1.19h-.14a7.45 7.45 0 01-1.08-4.51A5.41 5.41 0 017.41 4.6a3.52 3.52 0 012.5-1.19C12.07 3.41 13 6 13 7.12c.34.09.67.19 1 .31-.23-3.25-2.27-5-4.21-5a4.6 4.6 0 00-4.14 3.25 8.27 8.27 0 00.82 7.05.91.91 0 00-.16.62z"/></svg>