<svg xmlns="http://www.w3.org/2000/svg" viewBox="0 0 20 20"><path fill="#bd0012" d="M0 0h20v20H0z"/><path d="M6.41 16.08l7-4.49L17 17.54 6.41 16.1zM18 5v.1c0 .45-.05.91-.07 1.36v.89c0 .6-.07 1.2-.1 1.81v.9l-.09 1.77v.92c0 .31-.05.92-.07 1.38 0 .3 0 .6-.05.89 0 .48-.05.95-.07 1.42s0 .67-.05 1l-.05-.05-.58-.89-3.05-4.9c-.13-.22-.13-.22 0-.44l3.34-5c.25-.37.49-.74.74-1.1L18 5zM3.18 9.6L4.4 7.77a3.82 3.82 0 01.6-.66l2.15-2a5.16 5.16 0 01.93-.68l2.26-1.27a.33.33 0 01.29 0c.32.13.65.24 1 .36h.07v.08c-.3.58-.59 1.16-.88 1.74a.79.79 0 01-.19.25L7.8 8.15c-.17.16-.32.33-.49.48a1.92 1.92 0 01-.31.23c-.94.51-1.9 1-2.86 1.44a.22.22 0 01-.26 0zm4.29-.13L13 11.25l-7 4.5c0-.08 1.4-6.08 1.47-6.28zM17.35 5l-3.93 5.9-2-4.9c.05 0 5.2-.93 5.93-1zm-9.8 4L11 5.93l2 4.86zm-1.93 6.91L2 16l1.89-4.52zm.05-1.05l-1.54-4L7 9.4c-.07.32-.14.62-.22.92l-.21.91c-.08.31-.15.61-.23.92l-.21.9c-.08.3-.15.61-.22.91s-.14.6-.23.9zm5.6-9.33a.33.33 0 010-.13c.28-.58.57-1.16.86-1.73.06-.12.1-.14.22-.1l1.28.33 2.83.75h.14c-.05.09-4.71.81-5.33.88zm2.01-2.22l3.89-.86.83 2.16zM2.7 16.55a.24.24 0 01.19-.06h.73l1.76-.05a5.45 5.45 0 01.9.06l1 .12 1.21.16 1.2.17 1.13.16 1.07.15 1.5.2 1.19.16h.11-.06l-.82-.08-.93-.08-1.18-.11-.92-.09-1.14-.1-.92-.09L7.57 17l-.92-.08-1.13-.11-.93-.08-1-.09zM2 14.74c.31-1.54.62-3.08.94-4.64l.35.37.29.29c.11.12.13.18.06.33l-.73 1.69-.78 1.82-.13.15zm9.29-11.91c.45-.09 3.69-.51 3.78-.49h-.08l-.73.17L12.3 3a1.16 1.16 0 01-.78-.07z" fill="#fff"/></svg>