<svg xmlns="http://www.w3.org/2000/svg" viewBox="0 0 20 20"><path d="M0 0h20v20H0z"/><path d="M17.86 9.75l-.73-.45.63-.59a.29.29 0 00-.1-.49l-.81-.3.51-.7a.28.28 0 000-.28.31.31 0 00-.22-.18l-.85-.14.35-.78a.28.28 0 000-.29.27.27 0 00-.25-.12h-.86l.19-.85a.28.28 0 00-.34-.34l-.85.19v-.86a.27.27 0 00-.12-.25.3.3 0 00-.29 0l-.78.36-.14-.85a.31.31 0 00-.18-.22.28.28 0 00-.28 0l-.7.51-.31-.81a.27.27 0 00-.21-.19.3.3 0 00-.27.09l-.59.63-.45-.73a.29.29 0 00-.5 0l-.45.73-.59-.63a.29.29 0 00-.49.1l-.3.81-.7-.51a.28.28 0 00-.28 0 .31.31 0 00-.18.22l-.14.85-.78-.36a.3.3 0 00-.29 0 .27.27 0 00-.12.25v.86l-.85-.19a.28.28 0 00-.34.34l.19.85h-.86a.27.27 0 00-.25.12.3.3 0 000 .29l.36.78-.85.14a.31.31 0 00-.22.18.28.28 0 000 .28l.51.7-.81.3a.29.29 0 00-.1.49l.63.59-.73.45a.29.29 0 000 .5l.73.45-.63.59a.3.3 0 00-.09.27.27.27 0 00.19.21l.81.31-.51.7a.28.28 0 000 .28.31.31 0 00.22.18l.85.14-.36.78a.3.3 0 000 .29.27.27 0 00.25.12h.86l-.19.85a.28.28 0 00.34.34l.85-.19v.86a.27.27 0 00.12.25.28.28 0 00.29 0l.78-.35.14.85a.31.31 0 00.18.22.28.28 0 00.28 0l.7-.51.3.81a.29.29 0 00.49.1l.59-.63.45.73a.29.29 0 00.5 0l.45-.73.59.63a.3.3 0 00.27.09.27.27 0 00.21-.19l.31-.81.7.51a.28.28 0 00.28 0 .31.31 0 00.18-.22l.14-.85.78.35a.28.28 0 00.29 0 .27.27 0 00.12-.25v-.86l.85.19a.28.28 0 00.34-.34l-.19-.85h.86a.27.27 0 00.25-.12.28.28 0 000-.29l-.35-.78.85-.14a.31.31 0 00.22-.18.28.28 0 000-.28l-.51-.7.81-.31a.27.27 0 00.19-.21.3.3 0 00-.09-.27l-.63-.59.73-.45a.29.29 0 000-.5zM10 3.46a.47.47 0 11-.49.47.47.47 0 01.49-.47zM3.87 8.2a.47.47 0 01.47-.47.47.47 0 01.45.47.47.47 0 11-.94 0zm.54 3.34a5.73 5.73 0 01-.19-2.22l1-.45a.45.45 0 00.22-.57l-.21-.47h.82v3.71zm2.07 3.79a.48.48 0 01-.48-.47.49.49 0 01.48-.48.48.48 0 01.46.48.47.47 0 01-.46.47zm7 0a.47.47 0 010-.94.47.47 0 01.46.47.48.48 0 01-.47.49zm.66-1.33l-1-.21a.44.44 0 00-.52.33l-.23 1.11a5.79 5.79 0 01-4.85 0l-.24-1.1a.42.42 0 00-.51-.33l-1 .21a5.68 5.68 0 01-.5-.6h4.75s.09 0 .09-.06v-1.69c0-.05 0-.06-.09-.06H8.68v-1.06h1.51a1 1 0 01.92.8c.06.23.19 1 .28 1.24s.45.82.84.82h2.45a4.53 4.53 0 01-.54.6zM8.68 9V7.87h2c.11 0 .72.12.72.58s-.51.55-.9.55zm7.12 1.42h-.6c-.06 0-.08 0-.08.1v.27c0 .65-.37.79-.69.82a.66.66 0 01-.68-.31 2 2 0 00-.95-1.59A2.16 2.16 0 0014 8a1.88 1.88 0 00-.91-1.53 2.63 2.63 0 00-1.25-.41H5.67a5.82 5.82 0 013.25-1.83l.73.77a.43.43 0 00.61 0l.81-.78a5.83 5.83 0 014 2.84l-.56 1.26a.45.45 0 00.22.57l1.08.47a6.82 6.82 0 01-.01 1.02zm-.19-1.72a.48.48 0 010-.95.48.48 0 01.46.48.47.47 0 01-.46.47z" fill="#fff"/></svg>