<svg xmlns="http://www.w3.org/2000/svg" viewBox="0 0 20 20"><path fill="#cec5b5" d="M0 0h20v20H0z"/><path d="M5 9.07a6.07 6.07 0 00.7-1.54 6.16 6.16 0 01.91-2.37 2.68 2.68 0 012.2-.35 34.48 34.48 0 014.47.86c.69.24 1.58.7 1.53 1.77v.57a4.19 4.19 0 012.84 1.63c.69 1.06.27 2.36-1.07 3.37a14.28 14.28 0 01-3.75 1.54 18.33 18.33 0 01-5.39.68c-1.89-.1-4.25-.38-5.27-2.1 0 0-1.29-2.5 2.81-4zm9.78.38s0 .06-.05.1a2.57 2.57 0 01-2.32.95h-4c-2.41 0-3.16-.67-3.35-1.16v-.1.1l-.19 1.82c0 .83 2.15 1.5 4.92 1.5s5.15-.39 5.15-1.5v-1.6c-.07-.05-.08-.11-.12-.11z" fill="#fff"/></svg>