<svg xmlns="http://www.w3.org/2000/svg" viewBox="0 0 20 20"><path fill="#65a741" d="M0 0h20v20H0z"/><path d="M14.62 3.18l3.6 6.23a1.18 1.18 0 010 1.18l-3.6 6.23a1.18 1.18 0 01-1 .6H6.4a1.18 1.18 0 01-1-.6l-3.6-6.23a1.18 1.18 0 010-1.18l3.6-6.23a1.18 1.18 0 011-.6h7.2a1.18 1.18 0 011.02.6zm-4.15 6.69V5.3a.47.47 0 00-.94 0v4.57a.47.47 0 10.94 0zm4-.1a4.42 4.42 0 00-2.35-3.91.47.47 0 00-.64.19.48.48 0 00.2.64 3.48 3.48 0 11-3.28 0 .48.48 0 00.2-.64.47.47 0 00-.64-.19 4.43 4.43 0 106.51 3.91z" fill="#fff"/></svg>