<svg xmlns="http://www.w3.org/2000/svg" viewBox="0 0 20 20"><path fill="#6db33f" d="M0 .01h20v20H0z"/><path d="M16.56 3a6.78 6.78 0 01-.86 1.5 8 8 0 10-11.45 11 2.5 2.5 0 00.33.32l.29.26a8 8 0 0011.21-.95 8.05 8.05 0 001.86-4.57C18.17 8.6 17.56 6 16.56 3zM5.73 16a.68.68 0 11-.1-.95.69.69 0 01.1.88zm10.78-2.38c-2 2.61-6.17 1.72-8.84 1.85l-1 .1.41-.16A31.78 31.78 0 0011.05 14a9.2 9.2 0 004.73-6 9.71 9.71 0 01-5.58 5.31 36.75 36.75 0 01-4.37 1.13l-.12-.06c-1.91-.94-2-5.08 1.51-6.41 1.53-.59 3-.26 4.64-.66a7.15 7.15 0 004.61-3.51c.92 2.78 2.04 7.08.04 9.75z" fill="#fff"/></svg>