<svg xmlns="http://www.w3.org/2000/svg" viewBox="0 0 20 20"><defs><style>.a{fill:#fff}</style></defs><path d="M.07.04h20v20h-20z"/><path class="a" d="M16.67 5.75l-6.61 3.9L3.87 6C6 4.59 8.13 3.29 10.35 2zM13.56 12.47l3 1.75-.22.17c-2 1.18-4 2.35-6 3.54a.45.45 0 01-.52 0l-6.37-3.69-.13-.1 1.43-.82c.46-.26.93-.5 1.37-.77a.52.52 0 01.63 0c1 .6 2 1.19 3 1.77a3.45 3.45 0 00.34.19z"/><path class="a" d="M9.71 13.54L3.4 9.84V6.5l6.31 3.71zM13.55 8.36L16.4 10l-6 3.51v-3.3zM16.68 10.64v2.89l-2.46-1.44z"/></svg>