<svg xmlns="http://www.w3.org/2000/svg" viewBox="0 0 20 20"><path fill="#f05138" d="M0 0h20v20H0z"/><path d="M16.66 12.9l.06-.24c.88-3.49-1.25-7.66-4.88-9.82a8.43 8.43 0 011.67 7.05 5.84 5.84 0 01-.2.59 1.18 1.18 0 00-.32-.17 46.44 46.44 0 01-7.52-6.17A48.2 48.2 0 0010 9.89 50.73 50.73 0 013.54 5a10.4 10.4 0 00.87 1.2 39.59 39.59 0 006.67 7 7.62 7.62 0 01-7.22 0A10.84 10.84 0 012 12.06a11.09 11.09 0 005 4.27 8 8 0 006.88 0l.24-.14a2.48 2.48 0 013.61.92c.28.42.78-2-1.06-4.21z" fill="#fff"/></svg>