<svg xmlns="http://www.w3.org/2000/svg" viewBox="0 0 20 20"><path d="M0 0h20v20H0z"/><path d="M15.47 1.78a4.22 4.22 0 00-3 1.62 10.14 10.14 0 00-1.86 3.41 6.64 6.64 0 00-2.5-1.74 3.07 3.07 0 00-2.77.51 2.5 2.5 0 00-.85 1.23 2.83 2.83 0 00.71 2.57l.73.78a1.09 1.09 0 01.33 1.12 1.34 1.34 0 01-1.71.78c-.34-.1-.83-.36-.72-.72A2.82 2.82 0 014 11c0-.11.07-.19.09-.24a1 1 0 00-.54-1.2.81.81 0 00-1.11.56c-.21.67.11 1.88 1.83 2.41 2 .62 3.71-.48 4-1.91a2.85 2.85 0 00-1-2.41l-.6-.67A1.1 1.1 0 016.52 6 1.31 1.31 0 018 5.67c1.09.29 1.57 1 2.38 1.65a32 32 0 00-.75 3.18l-.12.73c-.58 3-1 4.69-2.16 5.65a1.83 1.83 0 01-1.06.42.3.3 0 01-.29-.25c0-.18.15-.26.25-.34A.65.65 0 006.6 16a1 1 0 00-1.08-1 1.26 1.26 0 00-1.16 1.27c0 .84.81 1.46 2 1.42a4.72 4.72 0 003.42-1.92 12 12 0 002.4-5.62l.37-2.09h.68c2 0 3-1 3-1.75a.82.82 0 00-.73-.9.84.84 0 00-.79.65c-.09.42.63.8.06 1.17a3.19 3.19 0 01-2.15.29l.19-1c.38-1.95.84-4.35 2.62-4.41.13 0 .6 0 .61.32 0 .11 0 .13-.14.37a.87.87 0 00-.17.53.84.84 0 00.95.81 1 1 0 00.93-1.11c0-.86-.94-1.4-2.14-1.36z" fill="#fff"/></svg>