<svg xmlns="http://www.w3.org/2000/svg" viewBox="0 0 20 20"><defs><style>.b{fill:#fff}</style></defs><path fill="#aedfe4" d="M0 0h20v20H0z"/><path class="b" d="M11.61 17.93a.47.47 0 01-.17 0 .42.42 0 01-.22-.52c0-.11-.12-.5-.92-1a.42.42 0 01.45-.7A2.92 2.92 0 0112 17a.94.94 0 010 .74.41.41 0 01-.39.19zm-.39-.54zm0 0zm0 0z"/><path class="b" d="M11.61 17.93a.42.42 0 01-.4-.29.42.42 0 01.27-.52 2.66 2.66 0 001.88-2 .42.42 0 01.82.14 3.52 3.52 0 01-2.45 2.6.25.25 0 01-.12.07zm-1.02-1.5a2.19 2.19 0 01-.9-.18 1.77 1.77 0 01-.94-1l.79-.25a.94.94 0 00.51.52 2.51 2.51 0 001.95-.27.41.41 0 11.34.75 4.25 4.25 0 01-1.75.43z"/><path class="b" d="M13.77 15.66a.42.42 0 01-.18-.79c.56-.26.52-.66.5-.75a.4.4 0 01.14-.42c.06 0 .85-.78.4-2.51a.42.42 0 01.29-.51.43.43 0 01.51.3 3.35 3.35 0 01-.51 3.19 1.56 1.56 0 01-1 1.45.58.58 0 01-.15.04zm-4.5-.15a2.28 2.28 0 01-1-.23A2.12 2.12 0 017.13 14a.42.42 0 01.29-.51.41.41 0 01.5.29 1.37 1.37 0 00.67.75 2.53 2.53 0 002-.18.42.42 0 01.54.23.41.41 0 01-.22.54 4.31 4.31 0 01-1.64.39z"/><path class="b" d="M7.7 14.32a4.31 4.31 0 01-.7-.05 4.2 4.2 0 01-2.93-2.17 6.08 6.08 0 01-.3-4c.77-3 4.14-4.82 4.4-5a9.36 9.36 0 014.27-1.24.42.42 0 010 .83 8.61 8.61 0 00-3.86 1.2s-3.3 1.71-4 4.44a5.45 5.45 0 00.25 3.38 3.36 3.36 0 002.32 1.72 4.09 4.09 0 00.87 0 5.83 5.83 0 002.15-.61.41.41 0 11.37.74 6.34 6.34 0 01-2.84.76z"/><path class="b" d="M5.71 9.31a.27.27 0 01-.22-.11.31.31 0 01-.1-.2 5 5 0 012-3.54 9.73 9.73 0 015.2-2.21h.16a.3.3 0 01.28.17.33.33 0 01-.13.43.39.39 0 01-.16 0 8.82 8.82 0 00-5 2.08A4.37 4.37 0 006 9a.32.32 0 01-.29.31zm8.29.99a.31.31 0 01-.26-.14.32.32 0 01.08-.44 2.59 2.59 0 001-1.42 2.54 2.54 0 00-.52-1.81.31.31 0 01.15-.59.32.32 0 01.13 0c.34.16.6.77.67 1a3.09 3.09 0 01.21 1.54 3.29 3.29 0 01-1.3 1.85.35.35 0 01-.16.01z"/><path class="b" d="M8 9.6A1.89 1.89 0 018.1 8a5.45 5.45 0 012.74-2.11 4.32 4.32 0 013.9 0A3.47 3.47 0 0116 7a3.25 3.25 0 01-.12 3.43 8.93 8.93 0 01-3.42 3.2.41.41 0 11-.38-.73 8.4 8.4 0 003.07-2.87 2.46 2.46 0 00.17-2.57c-.05-.08-1.34-2-4.16-.82a1.7 1.7 0 01.58.53c.31.49.5 1.66-1 2.75a3.48 3.48 0 01-2 .75 2.13 2.13 0 01-.55-.07 2.12 2.12 0 01-1.62-2.17 4.06 4.06 0 011.95-2.5A13.75 13.75 0 0112 4.3a.41.41 0 01.52.27.43.43 0 01-.28.52A13 13 0 009 6.6c-.66.47-1.54 1.19-1.61 1.91A1 1 0 008 9.6l1 .25"/></svg>