<svg xmlns="http://www.w3.org/2000/svg" viewBox="0 0 20 20"><defs><style>.b{fill:#fff}</style></defs><path fill="#7b68f7" d="M0 .04h20v20H0z"/><path class="b" d="M13.85 5.51a3.38 3.38 0 011.34.49 6.7 6.7 0 011.17 1l1 1A2.44 2.44 0 0118 9.43v.27c0 .11-.05.22-.08.32a2.66 2.66 0 01-.64 1.19 27 27 0 01-2.46 2.44c-.14.12-.3.22-.45.33l-.14.07a2.49 2.49 0 01-.83.33l-.25.05a2.48 2.48 0 01-1.39-.41 6.34 6.34 0 01-1.11-.9l-.77-.75-1.76-1.71c.17-.19.34-.37.52-.55L8.8 10l1.13 1.11.14.12.69.68a8.81 8.81 0 001.45 1.28 1.47 1.47 0 00.72.29 1.41 1.41 0 00.84-.25 6.89 6.89 0 001.11-.91l1.3-1.32a3.67 3.67 0 00.62-.79 1.18 1.18 0 00.2-.86 1.71 1.71 0 00-.36-.71 11.34 11.34 0 00-1.24-1.26 4.24 4.24 0 00-.95-.66 3.52 3.52 0 00-.13-.43c-.17-.29-.32-.52-.47-.78z"/><path class="b" d="M2 10l.12-.37a3.32 3.32 0 01.8-1.22l1.3-1.34a11.47 11.47 0 011.35-1.14l.19-.11a2.33 2.33 0 011.06-.34 2.51 2.51 0 011.72.62q.42.33.81.69l2.47 2.44.09.1-.69.69-.14-.14L10 8.78l-.7-.69c-.18-.19-.36-.38-.56-.56a7 7 0 00-1-.84 1.23 1.23 0 00-1.43 0l-.13.08c-.3.25-.62.48-.9.75-.52.49-1 1-1.52 1.51a5.3 5.3 0 00-.42.52 1.48 1.48 0 00-.28.7 1.33 1.33 0 00.29.93 9 9 0 001.36 1.4c.25.21.54.39.81.59a2.78 2.78 0 00.31.92l.17.31a3.18 3.18 0 01-1.15-.49 11.43 11.43 0 01-1-.75 9.58 9.58 0 01-1.35-1.39 2.72 2.72 0 01-.47-1v-.05z"/><path class="b" d="M9.26 8.09l.7.69-1 1c-.07.07-.12.15-.19.23l-.16.14c-.18.18-.35.36-.52.55h-.07c-.32.33-.65.65-1 1a6.41 6.41 0 00-.48.68 1.14 1.14 0 00-.17.62 1.33 1.33 0 00.24.74 5.7 5.7 0 00.88 1.08c.47.48.95 1 1.43 1.43a3 3 0 00.79.58 1.17 1.17 0 00.69.13 1.62 1.62 0 00.84-.41 10.68 10.68 0 001.34-1.35 8.31 8.31 0 00.49-.72l.25-.05a2.49 2.49 0 00.83-.33l.14-.07a6.38 6.38 0 01-.22.66 5 5 0 01-.9 1.33c-.34.37-.71.73-1.07 1.08a2.85 2.85 0 01-1.41.8 2.09 2.09 0 01-1.54-.26 4.37 4.37 0 01-.93-.72c-.39-.38-.78-.74-1.15-1.13A8.85 8.85 0 016 14.47a.27.27 0 00-.08-.07l-.17-.31a2.78 2.78 0 01-.31-.92c0-.21 0-.42.07-.63a3.11 3.11 0 01.73-1.33c.25-.31.53-.61.81-.9z"/><path class="b" d="M6.82 5.48a2.33 2.33 0 00-1.06.34l-.19.11a6.13 6.13 0 01.22-.6 5.13 5.13 0 01.78-1.16 11.92 11.92 0 011.48-1.45 2.39 2.39 0 011.62-.58 2.27 2.27 0 011.18.41 6.16 6.16 0 01.69.55c.36.33.71.69 1.06 1a13.65 13.65 0 011.25 1.38c.15.26.3.51.44.78a3.52 3.52 0 01.13.43 2.31 2.31 0 01-.32 1.54 6.83 6.83 0 01-1 1.23l-1 1-1.36 1.37-.69-.68L11.22 10l.69-.69.49-.49a6.43 6.43 0 00.87-1.08 1.23 1.23 0 000-1.34 5.32 5.32 0 00-.85-1.09L10.87 3.8a3.25 3.25 0 00-.5-.4 1.49 1.49 0 00-.74-.28 1.41 1.41 0 00-1 .37c-.19.15-.37.32-.55.49a7.94 7.94 0 00-1.26 1.5z"/></svg>