<svg xmlns="http://www.w3.org/2000/svg" viewBox="0 0 20 20"><path fill="#3598da" d="M0 .04h20v20H0z"/><path d="M10 17.2H6.86a1.42 1.42 0 01-1.36-.76c-1.08-1.88-2.15-3.77-3.24-5.65a1.41 1.41 0 010-1.55c1.08-1.85 2.14-3.71 3.2-5.58a1.49 1.49 0 011.42-.79h6.29a1.49 1.49 0 011.42.8c1.06 1.86 2.12 3.72 3.2 5.57a1.49 1.49 0 010 1.62c-1.07 1.83-2.12 3.67-3.17 5.51a1.49 1.49 0 01-1.47.83c-1.09-.02-2.15 0-3.15 0zm-2-3.52l2-3.56 2 3.55h1.5l-2-3.63 2-3.67H12L10 10 8 6.39H6.48l2 3.65-2 3.64z" fill="#fff"/></svg>